<svg xmlns="http://www.w3.org/2000/svg" width="320" height="305" viewBox="0 0 320 305"><g fill="none"><path fill="#006FCF" d="M0 0h320v305H0z"/><path fill="#00175A" fill-opacity=".3" d="M151.115 105.3c-5.309-5.747-7.934-14.942-8.724-22.832h-1.586c.957 9.734 4.15 18.082 8.6 23.262a32.831 32.831 0 011.71-.43zm-13.582-32.799v7.476h5.672v-1.421h-4.125v-6.055h-1.547zm56.501 179.853a41.487 41.487 0 01-2.291 3.014l-5.399 24.064c.545.044 1.061.129 1.562.234l6.128-27.312zm16.292-17.386h-1.645l-14.401 48.139c.441.402.864.819 1.272 1.246l14.774-49.385zm-79.163-152.5c1.399 10.621 6.362 19.713 13.296 25.226a19.116 19.116 0 011.576-.777c-6.879-5.17-11.857-14.036-13.28-24.449h-1.592zm72.968 152.5h-1.63l-11.934 45.589c.497.234.973.494 1.425.781l12.139-46.37zM129.998 75.855h1.765c.772 0 1.487-.119 1.487-.978 0-.675-.463-.989-1.456-.989h-1.796v1.967zm-1.604-3.354h3.41c1.799 0 3.134.584 3.134 2.369 0 1.1-.566 1.895-1.723 2.238l1.973 2.869h-1.895l-1.757-2.669h-1.538v2.669h-1.604v-7.476zm58.64 187.645a41.216 41.216 0 01-1.892 1.545l-4.901 26.21c.52.141 1.025.286 1.522.433l5.271-28.188zM121.48 82.468c2.935 18.634 19.061 32.886 38.52 32.886 19.458 0 35.584-14.252 38.519-32.886h-1.603c-2.928 17.736-18.363 31.31-36.916 31.31-18.553 0-33.988-13.574-36.916-31.31h-1.604zm9.716-12.478h1.592c1.469-10.305 6.423-19.071 13.247-24.199a19.116 19.116 0 01-1.576-.777c-6.879 5.47-11.82 14.463-13.263 24.976zm23.099-22.012c-1.994 5.174-3.421 12.986-3.884 22.012h1.581c.503-9.65 2.103-17.185 3.941-21.823-.556-.052-1.1-.117-1.638-.189zM140.828 69.99h1.583c.81-7.756 3.43-16.873 8.704-22.582a32.831 32.831 0 01-1.71-.43c-4.412 5.136-7.59 13.384-8.577 23.012zm15.085 34.553c-2.525-6.3-3.593-15.253-3.931-22.075h-1.581c.448 9.131 1.882 17.041 3.894 22.262a42.463 42.463 0 011.618-.187zm-5.706-28.293c0-1.578-.787-2.281-2.55-2.281h-.929v4.561h.929c1.763 0 2.55-.703 2.55-2.28zm-2.528 3.727h-2.558v-7.455h2.558c2.535 0 4.201 1.204 4.201 3.728 0 2.523-1.667 3.727-4.201 3.727zm-3.861 206.96l-3.224-21.552a42.243 42.243 0 01-1.74-.981l3.421 22.868a66.555 66.555 0 011.543-.335zm-25.126-103.131l4.79 25.617c.383-.718.783-1.426 1.207-2.118l-4.451-23.804a84.71 84.71 0 01-1.546.305zm-7.868 1.067l8.362 37.269a41.3 41.3 0 01.78-3.723l-7.564-33.707c-.522.056-1.042.113-1.578.161zm45.089 72.17c-2.525-6.3-3.593-15.253-3.931-22.075h-1.581c.448 9.131 1.882 17.041 3.894 22.262a42.463 42.463 0 011.618-.187zm-41.194-26.264c.001-.091-1.225-5.567-1.278-5.808h-2.344c-.045.203-1.09 5.615-1.127 5.808h-.039c-.097-.826-1.523-5.022-1.794-5.808h-1.583l2.373 7.455h2.113c.051-.247 1.22-5.856 1.218-5.946h.029c.02.074 1.408 5.871 1.426 5.946h2.112l2.086-7.455h-1.583c-.229.771-1.484 5.009-1.578 5.808h-.031zm66.427 33.625c-.572.341-1.152.668-1.741.981l-3.223 21.551c.524.108 1.04.22 1.543.336l3.421-22.868zm-26.851-63.926c-1.994 5.174-3.421 12.986-3.884 22.012h1.581c.503-9.65 2.103-17.185 3.941-21.823-.556-.052-1.1-.117-1.638-.189zm-31.216 25.692c-1.346 0-2.286 1.048-2.286 2.55 0 1.501.94 2.55 2.286 2.55 1.347 0 2.286-1.049 2.286-2.55 0-1.502-.939-2.55-2.286-2.55zm0-1.346c2.313 0 3.744 1.469 3.744 3.896 0 2.423-1.428 3.895-3.744 3.895-2.313 0-3.744-1.468-3.744-3.895 0-2.424 1.428-3.896 3.744-3.896zm16.68 63.078l-4.901-26.21a41.888 41.888 0 01-1.892-1.545l5.271 28.187a75.23 75.23 0 011.522-.432zm21.807-208.849c-.827 0-1.432-.343-1.541-1.181h-1.692c.13 1.735 1.516 2.474 3.252 2.474 1.577 0 2.949-.802 3-2.375.052-1.626-1.135-1.954-2.51-2.333-.824-.228-1.912-.53-1.884-1.385.018-.597.651-.848 1.251-.829.887.028 1.269.455 1.324 1.146h1.651c-.062-1.72-1.33-2.419-3.053-2.419-1.48 0-2.793.763-2.841 2.226-.054 1.704 1.26 2.025 2.768 2.454.72.208 1.564.445 1.589 1.17-.019.596-.522 1.052-1.314 1.052zm-27.911 200.379l-5.399-24.065a41.487 41.487 0 01-2.291-3.014l6.128 27.313c.501-.105 1.017-.19 1.562-.234zm-7.935 3.677l-14.402-48.141h-1.645l14.775 49.387c.408-.427.831-.845 1.272-1.246zm-31.033-98.232l11.253 37.613h1.645L96.38 185.037c-.566-.044-1.129-.104-1.693-.16zm34.746 95.68l-11.934-45.589h-1.63l12.139 46.371a13.11 13.11 0 011.425-.782zm-26.58-95.312l9.75 37.245h1.629l-9.756-37.27c-.534.013-1.076.02-1.623.025zM200.416 73.7c.826 0 1.381.43 1.571 1.138h1.737c-.208-1.493-1.494-2.484-3.308-2.484-2.223 0-3.55 1.457-3.55 3.896s1.315 3.895 3.516 3.895c1.817 0 3.219-.909 3.407-2.731h-1.74c-.139.878-.74 1.385-1.667 1.385-1.356 0-1.914-1.2-1.914-2.549 0-1.573.746-2.55 1.948-2.55zm-41.204 43.998v15.198c.263-.003.522-.008.789-.008s.524.005.787.007v-15.197c-.263.005-.524.02-.788.02s-.525-.015-.788-.02zm17.178 16.781a65.7 65.7 0 011.607.354l-1.535-20.529c-.506.22-1.018.426-1.534.626l1.462 19.549zm-8.635-1.261c.537.047 1.064.098 1.582.154l-.62-16.582a40.38 40.38 0 01-1.565.299l.603 16.129zm27.556-35.315l6.305 33.721c.524 0 .935.007 1.612.043l-6.71-35.883a40.887 40.887 0 01-1.207 2.119zm-11.185 28.985h1.122c.16 0 .31.014.466.019l-1.88-16.757c-.483.342-.975.674-1.474.995l1.766 15.743zm8.678 2.506c.645.473 1.251.989 1.822 1.532l-4.003-26.765c-.448.493-.907.974-1.378 1.445l3.559 23.788zm-40.559 3.824l.603-16.129a40.38 40.38 0 01-1.565-.299l-.62 16.582a77.984 77.984 0 011.582-.154zM124.574 76.25c0-1.502-.94-2.55-2.286-2.55-1.347 0-2.287 1.048-2.287 2.55 0 1.501.94 2.549 2.287 2.549 1.346 0 2.286-1.048 2.286-2.549zm1.458 0c0 2.423-1.428 3.895-3.744 3.895-2.313 0-3.745-1.468-3.745-3.895 0-2.424 1.428-3.896 3.745-3.896 2.313 0 3.744 1.469 3.744 3.896zm-16.528 57.161l10.462-46.622a41.3 41.3 0 01-.78-3.723l-11.507 51.286c.574-.32 1.175-.639 1.825-.941zm49.708-85.075V69.99h1.576V48.336c-1.361.024-.116.026-1.576 0zm-32.016 81.059l3.558-23.789c-.47-.47-.929-.952-1.377-1.445l-4.004 26.767a18.683 18.683 0 011.823-1.533zm16.413 5.084l1.463-19.549a41.09 41.09 0 01-1.535-.626l-1.535 20.53c.523-.123 1.061-.24 1.607-.355zm56.425-47.689l10.46 46.621a27.43 27.43 0 011.826.941l-11.507-51.284a41.203 41.203 0 01-.779 3.722zm-65.281 40.098h1.121l1.766-15.742a41.301 41.301 0 01-1.474-.995l-1.88 16.756c.156-.005.307-.019.467-.019zm-16.369 4.736l6.305-33.721c-.424-.692-.824-1.4-1.207-2.118l-6.71 35.883a26.39 26.39 0 011.612-.044zm70.452-49.156h-1.591c-1.424 10.413-6.401 19.28-13.28 24.449.558.246 1.085.504 1.576.777 6.933-5.513 11.896-14.605 13.295-25.226zm-8.851-7.591c0-.675-.462-.989-1.454-.989h-1.797v1.967h1.765c.772 0 1.486-.119 1.486-.978zm-.034 2.231l1.973 2.869h-1.895l-1.758-2.669h-1.537v2.669h-1.605v-7.476h3.411c1.742 0 3.134.608 3.134 2.369 0 1.1-.566 1.895-1.723 2.238zm-79.193 50.854a32.9 32.9 0 011.647-.063l11.892-45.431h-1.629l-11.91 45.494zm88.669-55.461l-2.321 5.756-2.429-5.756h-1.74l3.143 7.476h1.973l3.142-7.476h-1.768zm-16.768 1.415v-1.415h-5.741v7.476h5.919v-1.396h-4.315v-1.743h3.476v-1.369h-3.476v-1.553h4.137zm-6.955 30.814c2.013-5.221 3.446-13.131 3.895-22.262h-1.58c-.487 9.769-2.099 17.395-3.953 22.073.556.052 1.1.118 1.638.189zM151.115 257.8c-5.309-5.747-7.934-14.942-8.724-22.832h-1.586c.957 9.734 4.15 18.082 8.6 23.262a32.831 32.831 0 011.71-.43zm66.48-129.901c.58.009 1.132.029 1.646.063l-11.909-45.494h-1.63l11.893 45.431zm-24.588-47.922h1.575V72.5h-1.575v7.477zm18.701-6.061v-1.415h-5.741v7.476h5.919v-1.396h-4.315v-1.743h3.475v-1.369h-3.475v-1.553h4.137zm-50.92 30.456V82.468h-1.576v21.904c1.357-.024.124-.026 1.576 0zm8.097-56.964c5.282 5.717 7.895 14.84 8.703 22.582h1.584c-.987-9.628-4.166-17.876-8.577-23.012-.553.155-1.123.299-1.71.43zm-4.799.757c2.502 6.241 3.573 15.083 3.921 21.825h1.582c-.463-9.026-1.891-16.838-3.885-22.012a42.23 42.23 0 01-1.618.187zm11.455-3.151c-.491.273-1.018.531-1.576.777 6.824 5.128 11.778 13.894 13.247 24.199h1.592c-1.444-10.513-6.384-19.506-13.263-24.976zm3.654 37.454h-1.586c-.793 7.91-3.426 17.097-8.724 22.832.587.131 1.157.275 1.71.43 4.449-5.18 7.642-13.528 8.6-23.262zm-69.721 203.457l-15.27-34.027c-.457.262-.92.513-1.383.765l15.247 33.976c.447-.243.912-.484 1.406-.714zm-95.485-34.781a66.191 66.191 0 00-1.647-.549l1.751 15.611c.559.203 1.111.421 1.659.647l-1.763-15.709zm30.076 47.596l-10.611-40.537a93.439 93.439 0 01-1.767-.525l10.749 41.062h1.629zM18.65 252.876c-.567-.222-1.131-.437-1.69-.65l2.445 16.347c.589.313 1.169.641 1.74.981l-2.495-16.678zm15.384 28.728l-5.61-25.003c-.594-.207-1.179-.416-1.755-.627l5.074 22.616a41.487 41.487 0 012.291 3.014zm-12.29-27.51l3.398 18.173a41.216 41.216 0 011.892 1.545l-3.561-19.043c-.582-.226-1.159-.451-1.729-.675zm28.507 44.646L38.51 259.494a82.485 82.485 0 01-1.769-.417l11.866 39.663h1.644zm85.671-119.986c-.5.192-1.009.384-1.521.576l1.765 15.727c.483-.342.975-.673 1.474-.994l-1.718-15.309zm-22.704 105.891l-14.602-35.499c-.445.299-.892.593-1.342.882l14.411 35.032c.482-.154.991-.293 1.533-.415zm14.83-103.134c-.499.153-1.012.301-1.526.449l2.855 19.087c.447-.493.907-.974 1.377-1.445l-2.706-18.091zm15.927-5.89c-.509.19-1.022.384-1.537.582l1.1 14.701a40.36 40.36 0 011.534-.626l-1.097-14.657zM117.35 284.14l-14.296-38.227c-.433.34-.867.679-1.306 1.008l13.959 37.328c.522-.052 1.066-.09 1.643-.109zm5.145 2.393l-28.311-84.115a30.251 30.251 0 01-.792 2.589l27.902 82.902c.366-.416.831-.947 1.201-1.376zm.634-64.043c3.031-17.613 18.406-31.06 36.871-31.06 18.465 0 33.839 13.447 36.871 31.06h1.604c-3.04-18.511-19.104-32.636-38.475-32.636-19.371 0-35.435 14.125-38.475 32.636h1.604zM4.086 276.915c2.502 6.241 3.573 15.083 3.921 21.825h1.582c-.463-9.026-1.891-16.838-3.885-22.012a42.23 42.23 0 01-1.618.187zm4.799-.757c5.282 5.717 7.895 14.84 8.703 22.582h1.584c-.987-9.628-4.166-17.876-8.577-23.012-.553.155-1.123.299-1.71.43zM6.918 305h5.08v-.781H8.522v-1.553h4.137v-1.416H6.918V305zm13.067-1.373c0-.675-.462-.989-1.454-.989h-1.797v1.966h1.765c.772 0 1.486-.118 1.486-.977zm1.689-.007c0 .54-.14 1.004-.416 1.38h-6.129v-3.75h3.411c1.742 0 3.134.609 3.134 2.37zm13.637-172.565c.424.693.824 1.4 1.207 2.119l4.79-25.618a84.71 84.71 0 01-1.546-.305l-4.451 23.804zM.788 248.538c-.265-.006-.519-.031-.788-.031v15.233c.264 0 .525.015.788.02v-15.222zM0 111.24c.264 0 .525.015.788.02V96.038c-.265-.006-.519-.031-.788-.031v15.233zm15.541 162.524c-.491.273-1.018.531-1.576.777 6.824 5.128 11.778 13.894 13.247 24.199h1.592c-1.444-10.513-6.384-19.506-13.263-24.976zm22.934 24.976C35.435 280.229 19.371 266.104 0 266.104v1.576c18.465 0 33.839 13.447 36.871 31.06h1.604zm113.811-125.644c-.525.112-1.044.244-1.562.375l.559 14.947a40.38 40.38 0 011.565-.299l-.562-15.023zM5.102 248.882c-.52-.075-1.051-.13-1.583-.183l.57 15.244c.531.052 1.058.122 1.583.194l-.57-15.255zm4.383.892c-.534-.138-1.069-.279-1.61-.397l1.149 15.362c.54.12 1.078.246 1.609.387l-1.148-15.352zm-8.121 51.127c-.488 0-.952.091-1.364.255V305h3.718c-.447-.274-1.022-.441-1.643-.612-.824-.228-1.912-.53-1.884-1.385.018-.597.651-.848 1.251-.829.887.028 1.268.455 1.324 1.146h1.651c-.062-1.72-1.33-2.419-3.053-2.419zm21.573.349l1.576 3.75h1.746l-1.582-3.75h-1.74zM0 277.104v21.636h.788v-21.654c-.829.015-.693.021-.788.018zm160.788-20.232v-21.904h-1.576v21.904c1.357-.024.124-.026 1.576 0zm8.811-21.904h-1.58c-.487 9.769-2.099 17.395-3.953 22.073.556.052 1.1.118 1.638.189 2.013-5.221 3.446-13.131 3.895-22.262zm-5.513-34.303c2.502 6.241 3.573 15.083 3.921 21.825h1.582c-.463-9.026-1.891-16.838-3.885-22.012a42.23 42.23 0 01-1.618.187zm4.799-.757c5.282 5.717 7.895 14.84 8.703 22.582h1.584c-.987-9.628-4.166-17.876-8.577-23.012-.553.155-1.123.299-1.71.43zm19.919 22.582c-1.444-10.513-6.384-19.506-13.263-24.976-.491.273-1.018.531-1.576.777 6.824 5.128 11.778 13.894 13.247 24.199h1.592zm-9.609 12.478h-1.586c-.793 7.91-3.426 17.097-8.724 22.832.587.131 1.157.275 1.71.43 4.449-5.18 7.642-13.528 8.6-23.262zm-6.537-8.582v-1.415h-5.741v7.476h5.919v-1.396h-4.314v-1.742h3.475v-1.37h-3.475v-1.553h4.136zM147.015 231h.93c1.763 0 2.549-.703 2.549-2.28 0-1.578-.786-2.281-2.549-2.281h-.93V231zm-1.607 1.447v-7.455h2.559c2.534 0 4.2 1.204 4.2 3.728 0 2.523-1.666 3.727-4.2 3.727h-2.559zm-14.212-9.957h1.592c1.469-10.305 6.423-19.071 13.247-24.199a19.116 19.116 0 01-1.576-.777c-6.879 5.47-11.82 14.463-13.263 24.976zm6.625 2.481v7.476h5.671v-1.421h-4.125v-6.055h-1.546zm-7.32 3.354h1.765c.772 0 1.487-.118 1.487-.977 0-.675-.462-.989-1.455-.989h-1.797v1.966zm-1.604-3.354h3.41c1.794 0 3.135.582 3.135 2.369 0 1.1-.567 1.895-1.724 2.238l1.974 2.869h-1.896l-1.757-2.669h-1.538v2.669h-1.604v-7.476zm60.53 0l-2.297 5.757h-.045l-2.409-5.757h-1.74l3.143 7.476h1.973l3.143-7.476h-1.768zm-.591 9.997h-1.591c-1.424 10.413-6.401 19.28-13.28 24.449.558.246 1.085.504 1.576.777 6.933-5.513 11.896-14.605 13.295-25.226zm-8.851-7.62c0-.675-.462-.989-1.455-.989h-1.797v1.966h1.765c.772 0 1.487-.118 1.487-.977zm-.035 2.23l1.974 2.869h-1.896l-1.757-2.669h-1.538v2.669h-1.604v-7.476h3.41c1.755 0 3.135.617 3.135 2.369 0 1.1-.567 1.895-1.724 2.238zm-30.545-30.1c-4.412 5.136-7.59 13.384-8.577 23.012h1.583c.81-7.756 3.43-16.873 8.704-22.582a32.831 32.831 0 01-1.71-.43zm26.619-23.857l-1.096 14.657c.516.2 1.028.406 1.534.626l1.099-14.7a135.62 135.62 0 00-1.537-.583zm49.288 9.256c-.563.057-1.126.117-1.693.16l-11.204 37.453h1.644l11.253-37.613zm-66.1 15.959v21.654h1.576v-21.654c-1.361.024-.116.026-1.576 0zm46.556 21.654h1.629l9.75-37.245c-.547-.005-1.089-.012-1.623-.025l-9.756 37.27zm-38.054-49.394l-.562 15.023a40.38 40.38 0 011.565.299l.559-14.947a44.951 44.951 0 00-1.562-.375zm16.363 5.658l-1.717 15.309c.499.321.991.653 1.474.995l1.765-15.728c-.512-.191-1.021-.383-1.522-.576zm-23.289-6.466c-.265-.006-.519-.031-.788-.031s-.523.025-.788.031v15.222c.263-.005.524-.02.788-.02s.525.015.788.02v-15.222zm31.164 9.223l-2.706 18.091c.47.471.929.952 1.377 1.445l2.855-19.087c-.514-.148-1.027-.295-1.526-.449zm-27.368 48.93c.052-1.626-1.135-1.953-2.51-2.333-.824-.228-1.912-.529-1.884-1.384.019-.597.651-.848 1.251-.829.887.028 1.269.454 1.324 1.146h1.651c-.061-1.721-1.329-2.419-3.053-2.419-1.48 0-2.793.763-2.84 2.226-.055 1.704 1.259 2.025 2.767 2.454.721.208 1.564.445 1.589 1.17-.019.596-.522 1.052-1.313 1.052-.828 0-1.433-.343-1.542-1.182h-1.692c.13 1.736 1.516 2.474 3.252 2.474 1.578 0 2.949-.801 3-2.375zm28.422 2.006h1.575v-7.476h-1.575v7.476zm18.701-6.061v-1.415h-5.741v7.476h5.919v-1.396h-4.314v-1.742h3.475v-1.37h-3.475v-1.553h4.136zm-67.248 33.808a19.116 19.116 0 011.576-.777c-6.879-5.17-11.857-14.036-13.28-24.449h-1.592c1.399 10.621 6.362 19.713 13.296 25.226zm55.575-41.776c.317 1.219.573 2.462.779 3.722l8.362-37.267c-.536-.048-1.056-.106-1.578-.162l-7.563 33.707zm.381 7.752c.826 0 1.382.43 1.572 1.138h1.736c-.208-1.493-1.494-2.484-3.308-2.484-2.222 0-3.55 1.457-3.55 3.896s1.315 3.895 3.517 3.895c1.817 0 3.218-.908 3.406-2.731h-1.74c-.139.879-.74 1.386-1.666 1.386-1.356 0-1.914-1.201-1.914-2.55 0-1.573.746-2.55 1.947-2.55zm-5.104-18.865c.424.693.824 1.4 1.207 2.119l4.79-25.618a84.71 84.71 0 01-1.546-.305l-4.451 23.804zm-3.624-178.377l10.749 41.062h1.629l-10.611-40.537a93.439 93.439 0 01-1.767-.525zm70.316 65.126c.328 0 .637-.01.959-.014v-9.401c-.321.004-.632.016-.959.016-.631 0-1.26-.032-1.89-.056l-3.069 7.652c-.408-1.141-2.649-6.858-3.205-8.285a49.417 49.417 0 01-2.789-.549l-.068 9.576c.535.102 1.07.199 1.609.286-.004-1.681-.017-6.907-.03-8.013.424 1.163 2.889 7.074 3.463 8.465.619.064 1.24.119 1.862.162.5-1.131 3.06-6.862 3.494-8.051-.014 1.145-.027 6.733-.031 8.193.218.003.436.019.654.019zm-17.987-11.499c-.116.276-.913 2.054-1.718 3.839 1.207.516 2.414.981 3.621 1.401l-1.903-5.24zm-.911-1.68a48.55 48.55 0 002.353.918l3.921 10.872a58.61 58.61 0 01-1.852-.441l-.977-2.691a54.806 54.806 0 01-4.861-1.79c-.442.979-.827 1.829-1.028 2.269-.495-.194-.994-.377-1.482-.585l3.926-8.552zm30.635 4.456l-.026-1.638a65.407 65.407 0 01-7.807.854v9.415a75.889 75.889 0 008.093-.763l.024-1.547c-2.158.32-4.322.532-6.483.635v-2.293a65.368 65.368 0 005.319-.59v-1.575a65.82 65.82 0 01-5.319.591v-2.357a66.009 66.009 0 006.199-.732zM320 3.829V1.622h-1.667c.087 1.154.736 1.859 1.667 2.207zm-31.149 85.398V79.168c-.507.203-1.018.406-1.534.606V89.79a94.459 94.459 0 001.534-.563zm-5.802-4.9c0-1.134-.581-1.062-2.145-.643-.906.241-1.811.462-2.716.665v2.462a69.032 69.032 0 002.63-.57c1.607-.429 2.231-1.407 2.231-1.914zm-.603 2.853a133.843 133.843 0 003.038 3.243c-.574.191-1.157.377-1.751.559a131.032 131.032 0 01-2.974-3.163 72.32 72.32 0 01-2.571.601v4.012c-.542.118-1.087.233-1.649.34v-9.638c1-.222 2.446-.506 4.393-1.023 2.646-.713 3.895-.195 3.895 1.618 0 1.799-1.28 2.866-2.381 3.451zm28.669-58.13c-5.309-5.747-7.934-14.942-8.724-22.832h-1.586c.957 9.734 4.15 18.082 8.6 23.262a32.831 32.831 0 011.71-.43zm4.798-.756c-2.525-6.301-3.593-15.254-3.931-22.076h-1.581c.448 9.131 1.882 17.041 3.894 22.263a38.766 38.766 0 011.618-.187zm-24.75-22.076c1.399 10.621 6.362 19.713 13.296 25.226a18.802 18.802 0 011.576-.776c-6.879-5.171-11.857-14.037-13.28-24.45h-1.592zm16.494-3.938h-.929V0h-1.607v3.727h2.558c2.534 0 4.201-1.204 4.201-3.727h-1.674c0 1.577-.786 2.28-2.549 2.28zm-4.452.026h-4.125V0h-1.547v3.727h5.672V2.306zM320 41.468c-.264 0-.525-.015-.788-.02v15.198c.263-.003.521-.008.788-.008v-15.17zm0-13.364V6.218h-.788v21.904c.819-.015.696-.021.788-.018zm-24.42 49.725c1.077-.347 2.092-.257 2.404.831l1.536-.476c-.362-2.014-2.055-2.547-4.001-1.919-2.725.88-4.485 3.5-4.485 6.676 0 3.096 1.663 4.798 4.505 3.879 2.07-.669 3.54-2.287 3.985-4.307l-1.657.428c-.363 1.147-1.2 2.001-2.39 2.385-2.066.671-2.834-.722-2.834-2.89 0-1.729 1.206-4.047 2.937-4.607zM320 0h-.378c.119.061.245.118.378.17V0zm-25.247 50.638h1.121l1.766-15.742a41.301 41.301 0 01-1.474-.995l-1.88 16.756c.156-.005.307-.019.467-.019zm8.856 7.591l1.463-19.549a41.09 41.09 0 01-1.535-.626l-1.535 20.53c.523-.123 1.061-.24 1.607-.355zm8.636-1.261l.603-16.129a40.38 40.38 0 01-1.565-.299l-.62 16.582a77.984 77.984 0 011.582-.154zM270.176 3.706c.03-.143.433-2.08.768-3.706h-1.44l-.397 2.059h-.039c-.037-.318-.271-1.132-.559-2.059h-1.625l1.18 3.706h2.112zM320 39.104v-1.576c-18.553 0-33.988-13.574-36.916-31.31h-1.604c2.935 18.634 19.061 32.886 38.52 32.886zM272.85 3.706h2.112L275.999 0h-1.612c-.255.933-.464 1.751-.5 2.059h-.031c0-.037-.201-.961-.444-2.059h-1.45l.888 3.706zm17.148-2.648h1.538l1.757 2.669h1.895L293.215.858c.589-.175 1.021-.469 1.307-.858h-6.128v3.727h1.604V1.058zM320 77.797a265.159 265.159 0 00-5.405-5.941c-.623.047-1.235.099-1.832.161v9.508c.503-.067 1.009-.13 1.528-.184l-.014-7.441A266.326 266.326 0 01320 80.273v-2.476zm-14.193-3.264c-.122.337-1.408 3.899-1.919 5.33a25.69 25.69 0 013.912-1.069c-.552-1.163-1.993-4.261-1.993-4.261zm-1.14-1.101a56.33 56.33 0 012.013-.464 436.137 436.137 0 014.366 8.815c-.212.035-1.488.26-1.692.319a483.88 483.88 0 00-.916-1.949 25.672 25.672 0 00-5.174 1.467c-.28.786-.563 1.578-.836 2.353-.66.221-1.313.449-1.961.685a872.445 872.445 0 014.2-11.226zm-17.471-20.287l3.558-23.789c-.47-.47-.929-.952-1.377-1.445l-4.004 26.767a18.683 18.683 0 011.823-1.533zM237.72 72.828l-7.676 17.103c10.085 5.857 20.675 8.711 31.957 8.712 29.489 0 36.436-13 57.999-13v-1.577c-22.096 0-28.745 13-57.999 13-10.583 0-20.918-2.691-29.936-7.788l6.35-14.148c7.001 4.263 15.135 6.512 23.586 6.513 26.011 0 31.267-13 57.999-13v-1.577c-27.186.001-32.339 13-57.999 13-9.291 0-17.048-2.623-24.281-7.238zm42.246-62.289a41.3 41.3 0 01-.78-3.723l-11.507 51.286c.574-.32 1.175-.639 1.825-.941l10.462-46.622zm4.723 11.114c-.424-.692-.824-1.4-1.207-2.118l-6.71 35.883a26.39 26.39 0 011.612-.044l6.305-33.721zM113.887 78.309h-.031c.001-.091-1.225-5.567-1.278-5.808h-2.345c-.044.202-1.089 5.615-1.126 5.808h-.039c-.097-.826-1.523-5.022-1.794-5.808h-1.583l2.373 7.455h2.112c.052-.247 1.22-5.856 1.219-5.947h.029l1.426 5.947h2.112l2.086-7.455h-1.583c-.229.771-1.484 5.009-1.578 5.808zM84.016 6.305c-.116.276-.913 2.054-1.718 3.839 1.206.516 2.414.981 3.621 1.401l-1.903-5.24zm-.911-1.68a48.55 48.55 0 002.353.918l3.921 10.872a59.276 59.276 0 01-1.852-.441l-.977-2.691a54.922 54.922 0 01-4.861-1.79c-.442.979-.827 1.829-1.028 2.269-.495-.194-.994-.377-1.482-.585l3.926-8.552zM115.136 0H91.16a42.553 42.553 0 0010.841 1.393c5.084 0 9.338-.541 13.135-1.393zM262 72.002c11.126 0 18.133-2.892 25.552-5.955 5.353-2.21 6.381-5.623 6.411-11.437-7.375.616-9.058 9.988-17.958 13.417-2.811 1.165-5.817 1.676-8.603 1.895a23.445 23.445 0 004.329-2.234c3.475-.777 5.636-1.377 5.729-8.362-8.904.294-9.239 5.738-19.207 5.738a23.11 23.11 0 01-8.756-1.715c1.67.201 3.314.219 5.451-.14 5.045.778 7.047-2.583 7.249-7.621-5.278.129-7.26 1.552-11.319 1.552-3.989 0-7.657-2.545-9.814-6.809l-.818-1.619 1.741.507c4.613 1.338 9.225-2.135 9.225-6.927 0-6.182-5.029-11.212-11.212-11.212-6.182 0-11.211 5.03-11.211 11.212.001 16.382 14.898 29.71 33.211 29.71zm58 20.064v1.577c-18.419 0-27.65 13-57.999 13-15.483-.001-30.993-4.958-44.188-15.546l13.043-34.888c-2.328-4.196-3.645-8.92-3.645-13.919.002-7.05 5.739-12.786 12.789-12.786 7.052 0 12.789 5.737 12.789 12.788 0 5.096-4.352 9.163-9.483 8.761 1.906 2.852 4.65 4.511 7.572 4.511 3.976 0 6.042-1.562 12.122-1.562h.789v.788c0 3.91-1.009 6.861-2.916 8.541 7.142-.9 8.14-5.593 17.38-5.593h.788v.788c0 2.387-.115 4.781-.971 6.702 6.53-4.124 8.627-12.226 16.683-12.226h.788v.788c0 3.087-.01 6.919-2.186 9.939 6.851-2.578 14.736-4.727 26.645-4.727v1.576c-28.84 0-34.005 13-58 13-12.848 0-24.082-6.301-30.107-15.642L219.69 90.579c11.855 9.346 26.856 14.487 42.311 14.487 30.03 0 39.12-13 57.999-13zM102.003 17.804c.328 0 .637-.01.959-.014V8.389c-.321.004-.632.016-.959.016-.631 0-1.26-.032-1.89-.056l-3.069 7.652c-.408-1.141-2.649-6.858-3.205-8.285a49.417 49.417 0 01-2.789-.549l-.068 9.576c.535.102 1.07.199 1.609.286-.004-1.681-.017-6.907-.03-8.013.424 1.163 2.889 7.074 3.463 8.465.619.064 1.24.119 1.862.162.5-1.131 3.06-6.862 3.494-8.051-.014 1.145-.027 6.733-.031 8.193.218.003.436.019.654.019zm11.737-8.723l-.026-1.638a65.407 65.407 0 01-7.807.854v9.415a75.889 75.889 0 008.093-.763l.024-1.547c-2.158.32-4.322.532-6.483.635v-2.293a65.368 65.368 0 005.319-.59v-1.575a65.82 65.82 0 01-5.319.591V9.813a66.009 66.009 0 006.199-.732zm15.111 3.896V2.917c-.507.204-1.018.407-1.534.607V13.54a94.459 94.459 0 001.534-.563zm-5.802-4.9c0-1.134-.581-1.062-2.145-.643-.906.241-1.811.462-2.716.665v2.462a69.032 69.032 0 002.63-.57c1.607-.429 2.231-1.407 2.231-1.914zm-.603 2.853a133.843 133.843 0 003.038 3.243c-.574.191-1.157.377-1.751.559a131.032 131.032 0 01-2.974-3.163 72.32 72.32 0 01-2.571.601v4.012c-.542.118-1.087.233-1.649.34V6.884c1-.222 2.446-.506 4.393-1.023 2.646-.713 3.895-.195 3.895 1.618 0 1.799-1.28 2.865-2.381 3.451zm69.806-2.946l1.854.579c1.656.545 2.748.728 2.748-.67 0-1.122-1.05-1.659-2.748-2.219l-1.854-.579v2.889zm0 5.354l-1.603-.599V2.927c3.28 1.024 4.296 1.42 4.868 1.649 2.016.862 2.942 1.914 2.942 3.596 0 1.493-1.293 2.933-4.208 1.974l-1.999-.643v3.835zm-90.251 13.055c29.725 0 38.17-13 57.999-13 19.826 0 28.275 13 58 13 13.544-.001 26.417-3.846 38.154-11.979L250.225 0h-1.705l5.693 13.837c-10.6 7.185-23.108 10.979-36.213 10.979-29.375 0-37.733-13-58-13-20.266 0-28.626 13-57.999 13-13.106 0-25.613-3.794-36.214-10.979L71.48 0h-1.705l-5.929 14.414c11.715 8.118 24.583 11.978 38.155 11.979zm0 4c30.349 0 39.58-13 57.999-13 18.416 0 27.65 13 58 13 15.443-.001 30.959-4.931 44.188-15.546L256.637 0h-1.683l5.357 14.329C248.455 23.675 233.454 28.816 218 28.816c-30.035 0-39.118-13-58-13-18.879 0-27.969 13-57.999 13-15.455 0-30.456-5.141-42.311-14.487L65.046 0h-1.683l-5.55 14.847c13.195 10.588 28.705 15.545 44.188 15.546zM58.757 5.567l.875-2.341L58.547 0h-1.664l1.874 5.567zm43.244-1.751c-6.659 0-12.528-1.354-17.982-3.816h-3.61c6.534 3.524 13.928 5.392 21.592 5.393 11.521 0 18.97-2.551 26.017-5.393h-4.372c-5.888 2.143-12.447 3.816-21.645 3.816zm60.159 1.022V0h-1.495l.009 2.302c-.681-.782-1.367-1.54-2.053-2.302h-2.197a220.735 220.735 0 014.267 4.808c.49.005.979.015 1.469.03zm-60.159 17.555c29.489 0 36.436-13 57.999-13 21.556 0 28.516 13 58 13 11.275-.001 21.867-2.852 31.956-8.712L243.816 0h-1.728l5.847 13.028c-9.018 5.097-19.352 7.788-29.935 7.788-29.251 0-35.908-13-58-13-22.096 0-28.745 13-57.999 13-10.583 0-20.918-2.691-29.936-7.788L77.912 0h-1.727l-6.141 13.681c10.085 5.857 20.675 8.711 31.957 8.712zM218 1.393A42.55 42.55 0 00228.84 0h-23.974c3.796.852 8.05 1.393 13.134 1.393zM170.559 0v5.833c2.652.533 5.111 1.242 7.484 2.053l.025-1.619a66.97 66.97 0 00-5.94-1.705V1.909c1.624.385 3.25.837 4.873 1.355V1.689a66.934 66.934 0 00-4.873-1.355V0h-1.569zm64.687 13.962c-.675.157-1.456.143-1.985-.3l-1.897.394c.572 1.14 1.97 1.874 3.912 1.413 2.585-.618 4.251-2.152 4.242-3.909-.009-2.294-1.986-2.279-3.907-2.196-1.421.059-2.556.095-2.561-.905-.005-.881.838-1.624 2.199-1.939.815-.188 1.792-.162 2.079.619a50.565 50.565 0 001.695-.663c-.544-1.501-2.242-1.763-3.803-1.39-2.458.587-3.98 2.017-3.972 3.733.011 2.439 2.736 2.192 3.771 2.133 1.613-.085 2.647-.072 2.652 1.012.003.714-.829 1.629-2.425 1.998zM196.357 0h-4.375c7.046 2.842 14.493 5.393 26.018 5.393 7.663-.001 15.057-1.869 21.591-5.393h-3.609C230.54 2.457 224.671 3.816 218 3.816c-9.196 0-15.755-1.673-21.643-3.816zm66.759 0h-1.663l-1.086 3.227.876 2.34L263.116 0zm19.172 3.895c2.316 0 3.743-1.472 3.744-3.895h-1.458c0 1.501-.94 2.549-2.286 2.549S280.002 1.501 280.002 0h-1.458c0 2.427 1.431 3.895 3.744 3.895zm-28.751 19.626l-2.746 8.161c.427.434.824.897 1.198 1.381l3.616-10.746c-.684.413-1.373.815-2.068 1.204zm.159 29.371L267.66 6.218h-1.645l-14.041 46.934a15.787 15.787 0 001.722-.26zM152.763 5.275c.503-.067 1.009-.13 1.528-.184L154.281 0h-1.518v5.275zM135.519.015c-2.725.88-4.485 3.5-4.485 6.676 0 3.096 1.663 4.798 4.505 3.879 2.07-.669 3.54-2.287 3.985-4.307l-1.657.428c-.363 1.147-1.2 2.001-2.39 2.385-2.066.671-2.834-.722-2.834-2.89 0-1.729 1.206-4.047 2.937-4.607 1.077-.347 2.092-.257 2.404.831l1.536-.476c-.179-.993-.683-1.623-1.379-1.934h-2.563c-.02.006-.039.008-.059.015zm98.892 64.966l-10.565 25.683c11.715 8.118 24.584 11.978 38.155 11.979 29.725 0 38.17-13 57.999-13v-1.577c-20.266 0-28.626 13-57.999 13-13.106 0-25.613-3.794-36.214-10.979l9.219-22.408c7.273 6.434 16.812 9.964 26.995 9.964 25.072 0 30.159-13 57.999-13v-1.577c-28.202.001-33.39 13-57.999 13-10.388 0-19.545-3.535-27.59-11.085zM225.042 16.2c-.826.081-1.784-.086-2.253-.776l-1.908.228c.487 1.46 2.163 2.237 4.171 2.025 2.68-.291 4.411-1.591 4.411-3.311 0-2.3-2.137-2.466-4.023-2.612-1.422-.11-2.651-.206-2.651-1.197 0-.858.873-1.48 2.278-1.623.914-.093 1.97.088 2.183.997a62.902 62.902 0 001.792-.383c-.428-1.619-2.217-2.212-3.985-2.018-2.509.271-4.13 1.517-4.13 3.174-.001 2.362 2.769 2.457 3.881 2.532 1.682.11 2.746.254 2.746 1.313 0 .694-.864 1.484-2.512 1.651zM147.8 2.544a25.69 25.69 0 00-3.912 1.069c.298-.835.859-2.391 1.299-3.613h-1.585a853.93 853.93 0 00-3.135 8.408 75.453 75.453 0 011.961-.685c.273-.775.556-1.567.836-2.353a25.672 25.672 0 015.174-1.467c.18.381.74 1.569.916 1.949.204-.059 1.48-.284 1.692-.319A439.219 439.219 0 00148.329 0h-1.722c.427.915.919 1.967 1.193 2.544zm70.979 7.446l-.027-1.608a67.106 67.106 0 01-7.671-.298v9.442c3.037.246 5.316.295 7.953.248.002-.118.02-1.4.023-1.519a63.835 63.835 0 01-6.349-.201v-2.409c1.695.138 3.425.211 5.207.211v-1.53c-1.72 0-3.462-.069-5.207-.212V9.857c2.207.153 4.048.173 6.071.133zm-12.071.292c0-1.063-.761-1.255-2.345-1.558l-2.453-.494v2.361l2.533.554c1.149.218 2.265.264 2.265-.863zm-.681 2.48l2.701 4.537c-.717-.08-1.417-.17-2.102-.268l-2.618-4.403-2.098-.4v3.964a62.175 62.175 0 01-1.641-.377V6.084c1.854.516 4.286 1.053 4.289 1.054 2.623.499 3.847 1.58 3.847 3.398 0 1.432-.981 2.098-2.378 2.226zm-22.86-8.006l-3.972 3.533c.564.202 1.125.409 1.682.62l3.126-2.701 2.825 4.913 2.382 1.025-3.86-6.771 3.534-3.091-1.729-.711-2.622 2.369L182.286 0h-1.854l2.735 4.756zm77.591 46.956a34.14 34.14 0 011.647-.063l11.892-45.431h-1.629l-11.91 45.494zM64.399 22.33l3.615 10.74c.372-.483.773-.941 1.2-1.375l-2.748-8.164a72.498 72.498 0 01-2.067-1.201zm26.814 19.961c-.001-6.181-5.03-11.211-11.212-11.211-6.182 0-11.212 5.03-11.212 11.212 0 4.783 4.606 8.267 9.225 6.927l1.742-.507-.819 1.619c-2.156 4.264-5.825 6.809-9.814 6.809-4.059 0-6.04-1.423-11.318-1.552.202 5.072 2.209 8.398 7.249 7.621 2.137.36 3.769.343 5.451.14a23.118 23.118 0 01-8.757 1.715c-9.963 0-10.307-5.444-19.207-5.738.091 6.834 2.095 7.549 5.73 8.362a23.414 23.414 0 004.329 2.234c-2.786-.219-5.792-.73-8.603-1.895-8.898-3.428-10.584-12.801-17.959-13.417.031 5.823 1.063 9.229 6.411 11.437 7.419 3.063 14.426 5.955 25.552 5.955 18.312 0 33.211-13.328 33.212-29.711zm1.576-.001v.002c0 4.998-1.317 9.722-3.645 13.917l13.044 34.888c-13.229 10.615-28.746 15.545-44.189 15.546-30.348 0-39.583-13-57.999-13v-1.577c18.882.001 27.966 13 57.999 13 15.455 0 30.456-5.141 42.312-14.487L88.107 57.936c-6.025 9.342-17.259 15.642-30.106 15.642-23.993 0-29.162-13-58.001-13v-1.576c11.91 0 19.796 2.149 26.647 4.727-2.177-3.02-2.187-6.852-2.187-9.939v-.788h.789c8.056 0 10.152 8.102 16.682 12.226-.855-1.921-.971-4.315-.971-6.702v-.788h.788c9.243 0 10.233 4.693 17.38 5.593-1.906-1.68-2.915-4.631-2.915-8.541v-.788h.788c6.081 0 8.146 1.562 12.122 1.562 2.922 0 5.666-1.659 7.572-4.511-5.13.402-9.482-3.664-9.482-8.761 0-7.051 5.737-12.788 12.788-12.788 7.05 0 12.787 5.736 12.788 12.786zm-12.788-8.786c-4.846 0-8.788 3.942-8.788 8.788a4.794 4.794 0 004.788 4.788 4.794 4.794 0 004.788-4.788v-.788h-1.576v.788a3.216 3.216 0 01-3.212 3.212 3.216 3.216 0 01-3.212-3.212 7.22 7.22 0 017.212-7.212 7.22 7.22 0 017.212 7.212c0 9.819-6.562 19.233-16.329 23.425-8.588 3.688-17.407 2.379-23.593-3.498-.15-.144-.364-.36-.601-.614a13.446 13.446 0 00-2.503-.557l.003.025a18.878 18.878 0 002.016 2.289c6.601 6.271 16.04 7.779 25.299 3.804 10.338-4.437 17.284-14.435 17.284-24.876 0-4.845-3.942-8.786-8.788-8.786zm176.988 227.821l-2.533 5.211c.252.801.43 1.633.545 2.485l3.694-7.598a69.075 69.075 0 01-1.706-.098zM94.136 62.809l.811 2.17 13.332-32.411c-.564.035-1.155.055-1.736.08L94.136 62.809zM52.34 6.218l13.963 46.674a16.09 16.09 0 001.723.26L53.985 6.218H52.34zm32.449 36.074a4.794 4.794 0 00-4.788-4.788 4.794 4.794 0 00-4.788 4.788v.788h1.576v-.788a3.216 3.216 0 013.212-3.212 3.216 3.216 0 013.212 3.212c0 6.057-2.536 11.532-6.785 14.647-5.824 4.272-12.811 2.531-16.302.395-.193-.022-.374-.049-.577-.067.109.678.27 1.285.472 1.823 5.048 2.707 12.007 3.03 17.339-.88 4.652-3.411 7.429-9.361 7.429-15.918zM47.571 304.219v-1.553h4.136v-1.416h-5.74V305h5.079v-.781h-3.475zm-4.022-43.779c-.602-.094-1.182-.198-1.765-.302L56.883 305h1.664l-14.998-44.56zm208.681 26.02l11.207-24.974c-.48.006-.945.021-1.436.021-.1 0-.198-.005-.298-.005l-10.258 22.859.785 2.099zM40.382 3.895c1.817 0 3.219-.909 3.407-2.731h-1.74c-.139.878-.74 1.385-1.667 1.385-1.355 0-1.914-1.2-1.914-2.549h-1.602c.001 2.439 1.315 3.895 3.516 3.895zM33.007 305h1.575v-3.75h-1.575V305zM51.886 3.727V2.331h-4.315V.588h3.475V0h-5.079v3.727h5.919zM29.427 301.25L27.915 305h1.704l1.576-3.75h-1.768zm.102-243.673c-.593-.433-1.196-.782-1.848-1.018.019.296.044.583.074.867 1.032 2.49 2.554 4.709 4.425 6.597.313.128.633.257.944.385 1.481.612 2.947 1.214 4.431 1.789-3.491-2.005-6.327-4.983-8.026-8.62zm167.212-27.25l11.866 39.663h1.644L198.51 30.744a75.667 75.667 0 01-1.769-.417zm15.599 52.141l13.963 46.674a16.09 16.09 0 001.723.26l-14.041-46.934h-1.645zM93.696 129.142l13.964-46.674h-1.645l-14.041 46.934a15.787 15.787 0 001.722-.26zm-53.662 13.026c.317 1.219.573 2.462.779 3.722l8.362-37.267c-.536-.048-1.056-.106-1.578-.162l-7.563 33.707zm53.503-42.396l-2.747 8.16c.428.434.825.897 1.199 1.381l3.616-10.746c-.684.413-1.373.815-2.068 1.205zm130.862-1.192l3.615 10.74c.372-.483.773-.941 1.2-1.375l-2.748-8.164a72.498 72.498 0 01-2.067-1.201zm-37.73-71.356l5.074 22.616a41.487 41.487 0 012.291 3.014l-5.61-25.003c-.594-.207-1.179-.416-1.755-.627zM109.748 69.99h1.645l11.866-39.663a82.55 82.55 0 01-1.77.418L109.748 69.99zm-9.381 9.487l.876 2.34 16.973-50.429c-.583.104-1.164.208-1.765.302l-16.084 47.787zm15.567-9.487h1.63l10.749-41.062c-.578.179-1.17.353-1.767.525L115.934 69.99zm17.032-24.929a41.195 41.195 0 011.892-1.544l3.398-18.174c-.57.225-1.147.45-1.729.676l-3.561 19.042zm-7.001 7.794a41.487 41.487 0 012.291-3.014l5.074-22.617c-.576.211-1.161.42-1.755.627l-5.61 25.004zm55.779-27.511l3.398 18.173a41.216 41.216 0 011.892 1.545l-3.561-19.043c-.582-.226-1.159-.451-1.729-.675zM97.096 70.726l.841 2.251 15.278-40.854c-.578.068-1.158.134-1.754.191L97.096 70.726zM262 224.502c11.126 0 18.133-2.892 25.552-5.955 5.353-2.21 6.381-5.623 6.411-11.437-7.375.616-9.058 9.988-17.958 13.417-2.811 1.165-5.817 1.676-8.603 1.895a23.445 23.445 0 004.329-2.234c3.475-.777 5.636-1.377 5.729-8.362-8.904.294-9.239 5.738-19.207 5.738a23.11 23.11 0 01-8.756-1.715c1.67.201 3.314.219 5.451-.14 5.045.778 7.047-2.583 7.249-7.621-5.278.129-7.26 1.552-11.319 1.552-3.989 0-7.657-2.545-9.814-6.809l-.818-1.619 1.741.507c4.613 1.338 9.225-2.135 9.225-6.927 0-6.182-5.029-11.212-11.212-11.212-6.182 0-11.211 5.03-11.211 11.212.001 16.382 14.898 29.71 33.211 29.71zm58 20.064v1.577c-18.419 0-27.65 13-57.999 13-15.483-.001-30.993-4.958-44.188-15.546l13.043-34.889c-2.328-4.195-3.645-8.92-3.645-13.918.002-7.05 5.739-12.786 12.789-12.786 7.052 0 12.789 5.737 12.789 12.788 0 5.096-4.352 9.163-9.483 8.761 1.906 2.852 4.65 4.511 7.572 4.511 3.976 0 6.042-1.562 12.122-1.562h.789v.788c0 3.91-1.009 6.861-2.916 8.541 7.142-.9 8.14-5.593 17.38-5.593h.788v.788c0 2.387-.115 4.781-.971 6.702 6.53-4.124 8.627-12.226 16.683-12.226h.788v.788c0 3.086-.01 6.918-2.186 9.939 6.851-2.578 14.736-4.727 26.645-4.727v1.576c-28.84 0-34.005 13-58 13-12.848 0-24.082-6.301-30.107-15.642l-12.203 32.643c11.855 9.346 26.856 14.487 42.311 14.487 30.03 0 39.12-13 57.999-13zm-50.252 54.174h1.645l11.866-39.663c-.583.142-1.167.284-1.77.418l-11.741 39.245zm5.717 2.51c-.141.475-.669 2.26-1.078 3.75h1.612l1.049-3.75h-1.583zm-8.191 0h-1.583l1.193 3.75h1.625a153.111 153.111 0 00-1.235-3.75zm25.692-27.439a41.888 41.888 0 011.892-1.545l3.398-18.173c-.57.225-1.147.45-1.729.676l-3.561 19.042zm-7.001 7.794a41.487 41.487 0 012.291-3.014l5.074-22.617c-.576.211-1.161.42-1.755.627l-5.61 25.004zm-10.031 17.135h1.63l10.749-41.063c-.578.18-1.17.354-1.767.526l-10.612 40.537zM240 191.58a3.216 3.216 0 013.212 3.212v.788h1.577v-.788a4.794 4.794 0 00-4.789-4.788 4.794 4.794 0 00-4.788 4.788c0 6.557 2.777 12.507 7.429 15.917 5.277 3.87 12.239 3.616 17.339.881a9.45 9.45 0 00.473-1.823c-.203.018-.385.045-.577.067-3.486 2.133-10.472 3.881-16.303-.396-4.248-3.114-6.784-8.589-6.784-14.646A3.215 3.215 0 01240 191.58zm47.821-127.557c1.871-1.888 3.393-4.107 4.426-6.597.029-.284.055-.571.073-.867-.651.236-1.255.585-1.848 1.018-1.699 3.637-4.534 6.615-8.026 8.62 1.485-.575 2.95-1.177 4.431-1.789l.944-.385zm-39.325 3.143c9.36 4.018 18.772 2.397 25.299-3.804a18.758 18.758 0 002.017-2.289l.002-.025c-.946.12-1.759.315-2.502.557-.238.254-.451.47-.602.614-6.185 5.877-15.005 7.186-23.593 3.498-9.766-4.192-16.328-13.606-16.328-23.425 0-3.977 3.235-7.212 7.211-7.212a7.22 7.22 0 017.212 7.212A3.216 3.216 0 01244 45.504a3.215 3.215 0 01-3.211-3.212v-.788h-1.577v.788A4.794 4.794 0 00244 47.08a4.794 4.794 0 004.789-4.788c0-4.846-3.943-8.788-8.789-8.788-4.845 0-8.788 3.941-8.788 8.786 0 10.441 6.946 20.439 17.284 24.876zM240 39.08a3.216 3.216 0 013.212 3.212v.788h1.577v-.788A4.794 4.794 0 00240 37.504a4.794 4.794 0 00-4.788 4.788c0 6.557 2.777 12.507 7.429 15.918 5.277 3.869 12.239 3.615 17.339.88a9.45 9.45 0 00.473-1.823c-.203.018-.385.045-.577.067-3.486 2.133-10.472 3.881-16.303-.395-4.248-3.115-6.784-8.59-6.784-14.647A3.215 3.215 0 01240 39.08zm79.212 259.66H320v-21.636c-.061-.002-.217-.008-.788-.018v21.654zm-31.391-82.217c1.871-1.888 3.393-4.107 4.426-6.597.029-.284.055-.572.073-.867-.651.236-1.255.585-1.848 1.018-1.699 3.637-4.534 6.615-8.026 8.62 1.485-.575 2.95-1.177 4.431-1.789l.944-.385zm5.429 87.104c0-.675-.463-.989-1.456-.989h-1.796v1.966h1.765c.772 0 1.487-.118 1.487-.977zm1.272 1.373h-6.128v-3.75h3.41c1.799 0 3.134.585 3.134 2.37 0 .54-.14 1.004-.416 1.38zm-46.026-85.334c9.36 4.018 18.772 2.397 25.299-3.804a18.843 18.843 0 002.017-2.289l.002-.025c-.946.12-1.759.315-2.502.557-.238.254-.451.47-.602.614-6.185 5.877-15.005 7.186-23.593 3.498-9.766-4.192-16.328-13.606-16.328-23.425 0-3.977 3.235-7.212 7.211-7.212a7.22 7.22 0 017.212 7.212 3.216 3.216 0 01-3.212 3.212 3.215 3.215 0 01-3.211-3.212v-.788h-1.577v.788A4.794 4.794 0 00244 199.58a4.794 4.794 0 004.789-4.788c0-4.846-3.943-8.788-8.789-8.788-4.845 0-8.788 3.941-8.788 8.786 0 10.441 6.946 20.439 17.284 24.876zm57.515 31.477l-1.763 15.71a40.991 40.991 0 011.659-.647l1.751-15.611c-.548.175-1.099.358-1.647.548zm-4.661 1.732l-2.495 16.679a40.029 40.029 0 011.74-.981l2.445-16.348c-.559.213-1.123.428-1.69.65zm-29.889 8.189l-14.365 38.412.842 2.251 15.277-40.854c-.578.068-1.158.133-1.754.191zm4.99-.624L261.453 305h1.663l15.1-44.862c-.583.104-1.164.208-1.765.302zm-22.315 31.119l.811 2.17 13.332-32.411c-.564.035-1.155.055-1.736.08l-12.407 30.161zm27.389 7.181h1.604c3.031-17.613 18.406-31.06 36.871-31.06v-1.576c-19.371 0-35.435 14.125-38.475 32.636zm28.99-48.966l-1.149 15.352a41.01 41.01 0 011.61-.387l1.149-15.363c-.542.118-1.076.259-1.61.398zM320 301.156c-.838.332-1.445.99-1.477 1.971-.032 1.005.419 1.524 1.099 1.873H320v-3.844zm-28.804-2.416h1.592c1.469-10.305 6.423-19.071 13.247-24.199a19.116 19.116 0 01-1.576-.777c-6.879 5.47-11.82 14.463-13.263 24.976zm6.337 6.26h1.547v-3.75h-1.547V305zm10.146-3.728h-2.558V305h1.607v-2.281h.929c1.763 0 2.55.703 2.55 2.281h-.001 1.674c0-2.524-1.666-3.728-4.201-3.728zm-6.851-2.532h1.583c.81-7.756 3.43-16.873 8.704-22.582a32.831 32.831 0 01-1.71-.43c-4.412 5.136-7.59 13.384-8.577 23.012zm18.384-34.98c.263-.005.524-.02.788-.02v-15.233c-.269 0-.523.025-.788.031v15.222zm-4.315-14.878l-.57 15.255a41.198 41.198 0 011.583-.194l.57-15.244c-.532.053-1.063.108-1.583.183zm1.036 28.035c-.556-.052-1.1-.117-1.638-.189-1.994 5.174-3.421 12.986-3.884 22.012h1.581c.503-9.65 2.103-17.185 3.941-21.823zM61.304 261.423l3.695 7.599a14.92 14.92 0 01.545-2.484l-2.534-5.212a74.02 74.02 0 01-1.706.097zM297.533 148.75v7.477h5.672v-1.421h-4.125v-6.056h-1.547zm6.285 61.937l-3.224-21.552a42.243 42.243 0 01-1.74-.981l3.421 22.868a66.555 66.555 0 011.543-.335zm-32.394-60.428l1.426 5.947h2.112l2.086-7.456h-1.583c-.229.771-1.484 5.01-1.578 5.809h-.031c.001-.091-1.225-5.567-1.278-5.809h-2.345c-.044.203-1.089 5.616-1.126 5.809h-.039c-.097-.826-1.523-5.022-1.794-5.809h-1.583l2.373 7.456h2.112c.052-.248 1.22-5.856 1.219-5.947h.029zm18.009 54.048l-11.934-45.589h-1.63l12.139 46.371a13.11 13.11 0 011.425-.782zm-7.145-49.258c1.346 0 2.286-1.048 2.286-2.549 0-1.502-.94-2.55-2.286-2.55-1.347 0-2.287 1.048-2.287 2.55 0 1.501.94 2.549 2.287 2.549zm0 1.346c-2.313 0-3.745-1.468-3.745-3.895 0-2.424 1.428-3.896 3.745-3.896 2.313 0 3.744 1.469 3.744 3.896 0 2.423-1.428 3.895-3.744 3.895zm11.367 46.787l-5.399-24.065a41.487 41.487 0 01-2.291-3.014l6.128 27.313c.501-.105 1.017-.19 1.562-.234zm6.104 8.47l-4.901-26.21a41.888 41.888 0 01-1.892-1.545l5.271 28.187a75.23 75.23 0 011.522-.432zm14.536-87.424c-1.994 5.174-3.421 12.986-3.884 22.012h1.581c.503-9.65 2.103-17.185 3.941-21.823-.556-.052-1.1-.117-1.638-.189zm-13.467 22.012h1.583c.81-7.756 3.43-16.873 8.704-22.582a32.831 32.831 0 01-1.71-.43c-4.412 5.136-7.59 13.384-8.577 23.012zm9.379 6.26c0-1.578-.787-2.281-2.55-2.281h-.929v4.561h.929c1.763 0 2.55-.703 2.55-2.28zm-2.528 3.727h-2.558v-7.455h2.558c2.535 0 4.201 1.204 4.201 3.728 0 2.523-1.667 3.727-4.201 3.727zm-118.15-22.4c-.593-.433-1.196-.782-1.848-1.018.019.295.044.583.074.867 1.032 2.49 2.554 4.709 4.425 6.597.313.128.633.257.944.385 1.481.612 2.947 1.214 4.431 1.789-3.491-2.005-6.327-4.983-8.026-8.62zm126.384 46.966c-2.525-6.3-3.593-15.253-3.931-22.075h-1.581c.448 9.131 1.882 17.041 3.894 22.262a42.463 42.463 0 011.618-.187zm-24.717-34.553h1.592c1.469-10.305 6.423-19.071 13.247-24.199a19.116 19.116 0 01-1.576-.777c-6.879 5.47-11.82 14.463-13.263 24.976zm19.919 35.31c-5.309-5.747-7.934-14.942-8.724-22.832h-1.586c.957 9.734 4.15 18.082 8.6 23.262a32.831 32.831 0 011.71-.43zm-23.067-76.289c-.499.153-1.012.301-1.526.449l2.855 19.087c.447-.493.907-.974 1.377-1.445l-2.706-18.091zm-2.328 101.598l-14.402-48.141h-1.645l14.775 49.387c.408-.427.831-.845 1.272-1.246zm-34.507-88.318c-.001-6.181-5.03-11.211-11.212-11.211-6.182 0-11.212 5.03-11.212 11.212 0 4.783 4.606 8.267 9.225 6.927l1.742-.507-.819 1.619c-2.156 4.264-5.825 6.809-9.813 6.809-4.06 0-6.041-1.423-11.319-1.552.202 5.072 2.209 8.398 7.249 7.621 2.138.36 3.769.343 5.451.14a23.117 23.117 0 01-8.756 1.715c-9.963 0-10.308-5.444-19.207-5.738.09 6.834 2.094 7.549 5.729 8.362a23.414 23.414 0 004.329 2.234c-2.786-.219-5.792-.73-8.603-1.895-8.898-3.428-10.584-12.801-17.959-13.417.031 5.823 1.063 9.229 6.411 11.437 7.419 3.063 14.426 5.955 25.552 5.955 18.312 0 33.211-13.328 33.212-29.711zm-3.106 15.645c-6.025 9.342-17.259 15.642-30.106 15.642-23.993 0-29.162-13-58-13-28.841 0-34.006 13-58.001 13-12.848 0-24.082-6.301-30.107-15.642L59.69 166.829c11.855 9.346 26.856 14.487 42.311 14.487 30.03 0 39.12-13 57.999-13 18.882 0 27.965 13 58 13 15.454 0 30.455-5.141 42.311-14.487l-12.204-32.643zM102 148.252c11.126 0 18.133-2.892 25.552-5.955 5.353-2.21 6.381-5.623 6.411-11.437-7.375.616-9.058 9.988-17.958 13.417-2.811 1.165-5.817 1.676-8.603 1.895a23.445 23.445 0 004.329-2.234c3.475-.777 5.636-1.377 5.729-8.362-8.904.294-9.239 5.738-19.207 5.738a23.11 23.11 0 01-8.756-1.715c1.67.201 3.314.219 5.45-.14 5.046.778 7.048-2.583 7.25-7.621-5.278.129-7.26 1.552-11.319 1.552-3.989 0-7.657-2.545-9.814-6.809l-.818-1.619 1.741.507c4.613 1.338 9.225-2.135 9.225-6.927 0-6.182-5.029-11.212-11.211-11.212-6.183 0-11.212 5.03-11.212 11.212.001 16.382 14.898 29.71 33.211 29.71zm150.789-29.71c0 4.998-1.317 9.722-3.645 13.917l13.044 34.888c-13.229 10.615-28.745 15.545-44.188 15.546-30.35 0-39.584-13-58-13-18.419 0-27.65 13-57.999 13-15.483-.001-30.993-4.958-44.188-15.546l13.043-34.889c-2.328-4.195-3.645-8.92-3.645-13.918.002-7.05 5.739-12.786 12.79-12.786 7.051 0 12.788 5.737 12.788 12.788 0 5.096-4.352 9.163-9.483 8.761 1.906 2.852 4.65 4.511 7.572 4.511 3.976 0 6.042-1.562 12.122-1.562h.789v.788c0 3.91-1.009 6.861-2.916 8.541 7.142-.9 8.14-5.593 17.38-5.593h.788v.788c0 2.387-.115 4.781-.971 6.702 6.53-4.124 8.627-12.226 16.683-12.226h.788v.788c0 3.086-.01 6.918-2.186 9.939 6.851-2.578 14.737-4.727 26.646-4.727s19.795 2.149 26.646 4.727c-2.177-3.021-2.187-6.853-2.187-9.939v-.788h.789c8.056 0 10.152 8.102 16.682 12.226-.855-1.921-.971-4.315-.971-6.702v-.788h.789c9.241 0 10.232 4.693 17.379 5.593-1.906-1.68-2.915-4.631-2.915-8.541v-.788h.788c6.081 0 8.146 1.562 12.123 1.562 2.921 0 5.665-1.659 7.571-4.511-5.13.402-9.482-3.664-9.482-8.761 0-7.051 5.737-12.788 12.788-12.788s12.787 5.736 12.788 12.786v.002zm43.133-16.038c-.5.192-1.009.384-1.521.576l1.765 15.727c.483-.342.975-.673 1.474-.994l-1.718-15.309zm-51.133 16.038a4.794 4.794 0 00-4.788-4.788 4.794 4.794 0 00-4.788 4.788v.788h1.576v-.788a3.216 3.216 0 013.212-3.212 3.216 3.216 0 013.212 3.212c0 6.057-2.536 11.532-6.785 14.646-5.824 4.273-12.811 2.532-16.302.396-.193-.022-.374-.049-.577-.067.109.678.27 1.285.472 1.823 5.048 2.707 12.007 3.03 17.339-.881 4.652-3.41 7.429-9.36 7.429-15.917zM45.768 146.24h1.629l9.75-37.245c-.547-.005-1.089-.012-1.623-.025l-9.756 37.27zm237.361 0c3.031-17.613 18.406-31.06 36.871-31.06v-1.576c-19.371 0-35.435 14.125-38.475 32.636h1.604zm23.289 63.962c.51-.085 1.03-.166 1.56-.242l-2.071-18.458a40.991 40.991 0 01-1.659-.647l2.17 19.347zm-2.443-110.831c-.509.19-1.022.384-1.537.583l1.1 14.7a40.36 40.36 0 011.534-.626l-1.097-14.657zm6.666 110.253a85.316 85.316 0 011.569-.153l-1.234-16.502a41.01 41.01 0 01-1.61-.387l1.275 17.042zm1.645-112.778c-.525.112-1.044.244-1.562.375l.559 14.947a40.38 40.38 0 011.565-.299l-.562-15.023zM320 191.604v-1.576c-18.553 0-33.988-13.574-36.916-31.31h-1.604c2.935 18.634 19.061 32.886 38.52 32.886zm-5.086 17.672a84.55 84.55 0 011.574-.074l-.578-15.437a41.198 41.198 0 01-1.583-.194l.587 15.705zm-23.751-50.558c1.399 10.621 6.362 19.713 13.296 25.226a19.116 19.116 0 011.576-.777c-6.879-5.17-11.857-14.036-13.28-24.449h-1.592zm-28.31-49.723l9.75 37.245h1.629l-9.756-37.27c-.534.013-1.076.02-1.623.025zm-8.165-.368l11.252 37.613h1.645l-11.205-37.453c-.566-.044-1.129-.104-1.692-.16zm-1.296 20.13l27.902 82.902c.366-.416.831-.947 1.201-1.376l-28.311-84.115a30.613 30.613 0 01-.792 2.589zm65.82-17.497c.263-.005.524-.02.788-.02V96.007c-.269 0-.523.025-.788.031v15.222zm-40.52-3.704l4.79 25.617c.383-.718.783-1.426 1.207-2.118l-4.451-23.804a84.71 84.71 0 01-1.546.305zm-7.868 1.067l8.362 37.269a41.3 41.3 0 01.78-3.723l-7.564-33.707c-.522.056-1.042.113-1.578.161zm2.394 99.772l-14.603-35.499c-.444.299-.891.593-1.341.882l14.411 35.032c.482-.154.991-.293 1.533-.415zm4.132-.505l-14.296-38.227c-.433.34-.867.679-1.306 1.008l13.959 37.328c.522-.052 1.066-.09 1.643-.109zm-42.939 9.591l-10.565 25.683c11.715 8.118 24.584 11.978 38.155 11.979 29.725 0 38.17-13 57.999-13v-1.577c-20.266 0-28.626 13-57.999 13-13.106 0-25.613-3.795-36.214-10.979l9.219-22.408c7.273 6.434 16.812 9.964 26.995 9.964 25.072 0 30.159-13 57.999-13v-1.577c-28.202.001-33.39 13-57.999 13-10.388 0-19.545-3.535-27.59-11.085zm28.106-13.334l-12.721-26.166c-.473.23-.951.447-1.429.666l12.428 25.563a34.516 34.516 0 011.722-.063zm-11.262-.897l1.307 2.328a21.155 21.155 0 001.646-.288l-1.792-3.195c-.359.413-.746.799-1.161 1.155zm6.963 1.235l-3.489-6.666c-.193.68-.445 1.334-.756 1.955l2.617 4.999c.509-.103 1.05-.2 1.628-.288zm11.256 5.19l-15.27-34.027c-.457.262-.92.513-1.383.765l15.247 33.976c.447-.243.912-.484 1.406-.714zm-25.458 25.38c-.116.276-.913 2.054-1.718 3.839 1.207.516 2.414.981 3.621 1.401l-1.903-5.24zm-.911-1.68a48.55 48.55 0 002.353.918l3.921 10.872a58.61 58.61 0 01-1.852-.441l-.977-2.691a54.806 54.806 0 01-4.861-1.79c-.442.979-.827 1.829-1.028 2.269-.495-.194-.994-.377-1.482-.585l3.926-8.552zm45.746 8.352v-10.06c-.507.204-1.018.407-1.534.607v10.016a104.91 104.91 0 001.534-.563zm-5.802-4.9c0-1.134-.581-1.062-2.145-.643-.906.241-1.811.462-2.716.665v2.462a69.032 69.032 0 002.63-.57c1.607-.429 2.231-1.407 2.231-1.914zm-.603 2.853a133.843 133.843 0 003.038 3.243c-.574.191-1.157.377-1.751.559a131.032 131.032 0 01-2.974-3.163 72.32 72.32 0 01-2.571.601v4.012c-.542.118-1.087.233-1.649.34v-9.638c1-.222 2.446-.506 4.393-1.023 2.646-.713 3.895-.195 3.895 1.618 0 1.799-1.28 2.865-2.381 3.451zm13.134-9.351c1.077-.347 2.092-.257 2.404.831l1.536-.476c-.362-2.014-2.055-2.547-4.001-1.919-2.725.88-4.485 3.5-4.485 6.676 0 3.096 1.663 4.798 4.505 3.879 2.07-.669 3.54-2.287 3.985-4.307l-1.657.428c-.363 1.147-1.2 2.001-2.39 2.385-2.066.671-2.834-.722-2.834-2.89 0-1.729 1.206-4.047 2.937-4.607zm10.227-3.296c-.122.337-1.408 3.899-1.919 5.33a25.69 25.69 0 013.912-1.069c-.552-1.163-1.993-4.261-1.993-4.261zm-1.14-1.101a56.33 56.33 0 012.013-.464 436.137 436.137 0 014.366 8.815c-.212.035-1.488.26-1.692.319a483.88 483.88 0 00-.916-1.949 25.672 25.672 0 00-5.174 1.467c-.28.786-.563 1.578-.836 2.353-.66.22-1.313.449-1.961.685a872.445 872.445 0 014.2-11.226zM320 230.297a265.159 265.159 0 00-5.405-5.941c-.623.047-1.235.099-1.832.161v9.508c.503-.067 1.009-.13 1.528-.184l-.014-7.441a266.326 266.326 0 015.723 6.373v-2.476zm-82.28-4.969l-7.676 17.103c10.085 5.856 20.675 8.711 31.957 8.712 29.489 0 36.436-13 57.999-13v-1.577c-22.096 0-28.745 13-57.999 13-10.583 0-20.918-2.691-29.936-7.788l6.35-14.148c7.001 4.263 15.135 6.512 23.586 6.513 26.011 0 31.267-13 57.999-13v-1.577c-27.186.001-32.339 13-57.999 13-9.291 0-17.048-2.623-24.281-7.238zm82.28-31.36c-.264 0-.525-.015-.788-.02v15.198c.263-.003.521-.008.788-.008v-15.17zm-98.218 86.767c.578.088 1.119.185 1.628.288l2.618-5.002a11.053 11.053 0 01-.755-1.954l-3.491 6.668zm97.43-134.495H320v-21.636c-.061-.002-.217-.008-.788-.018v21.654zm.788 10.089v-2.207h-1.667c.087 1.154.736 1.859 1.667 2.207zm-57.997 90.225c.328 0 .637-.01.959-.014v-9.401c-.321.004-.632.016-.959.016-.631 0-1.26-.032-1.89-.056l-3.069 7.651c-.408-1.14-2.649-6.857-3.205-8.284a49.417 49.417 0 01-2.789-.549l-.068 9.576c.535.102 1.07.199 1.609.286-.004-1.681-.017-6.907-.03-8.013.424 1.163 2.889 7.074 3.463 8.465.619.064 1.24.119 1.862.162.5-1.131 3.06-6.862 3.494-8.051-.014 1.145-.027 6.733-.031 8.193.218.003.436.019.654.019zm57.209-65.932c.819-.015.696-.021.788-.018v-21.886h-.788v21.904zm-45.472 57.209l-.026-1.638a65.407 65.407 0 01-7.807.854v9.415a75.889 75.889 0 008.093-.763l.024-1.547c-2.158.32-4.322.532-6.483.635v-2.293a65.368 65.368 0 005.319-.59v-1.575a65.82 65.82 0 01-5.319.591v-2.357a66.009 66.009 0 006.199-.732zm16.258-85.727h1.765c.772 0 1.487-.118 1.487-.977 0-.675-.463-.989-1.456-.989h-1.796v1.966zm-1.604-3.354h3.41c1.799 0 3.134.585 3.134 2.37 0 1.1-.566 1.895-1.723 2.238l1.973 2.869h-1.895l-1.757-2.669h-1.538v2.669h-1.604v-7.477zm30.129 1.877c-.037 1.182.59 1.694 1.477 2.043v-4.014c-.838.332-1.445.99-1.477 1.971zM40.415 302.45c.827 0 1.382.43 1.572 1.138h1.737c-.208-1.494-1.494-2.484-3.309-2.484-2.222 0-3.549 1.457-3.549 3.896h1.602c0-1.573.746-2.55 1.947-2.55zm210.798-31.409c-.001-6.181-5.03-11.211-11.212-11.211-6.182 0-11.212 5.03-11.212 11.212 0 4.783 4.606 8.267 9.225 6.927l1.742-.507-.819 1.619c-2.156 4.264-5.825 6.809-9.813 6.809-4.06 0-6.041-1.423-11.319-1.552.202 5.072 2.209 8.398 7.249 7.621 2.138.36 3.769.343 5.451.14a23.117 23.117 0 01-8.756 1.715c-9.963 0-10.308-5.444-19.207-5.738.09 6.834 2.094 7.549 5.729 8.362a23.414 23.414 0 004.329 2.234c-2.786-.219-5.792-.73-8.603-1.895-8.898-3.428-10.584-12.801-17.959-13.417.031 5.823 1.063 9.229 6.411 11.437 7.419 3.063 14.426 5.955 25.552 5.955 18.312 0 33.211-13.328 33.212-29.711zm-117.25 12.319c-7.375.616-9.058 9.988-17.958 13.417-2.811 1.165-5.817 1.676-8.603 1.895a23.445 23.445 0 004.329-2.234c3.475-.777 5.636-1.377 5.729-8.362-8.904.294-9.239 5.738-19.207 5.738a23.11 23.11 0 01-8.756-1.715c1.67.201 3.314.219 5.45-.14 5.046.778 7.048-2.583 7.25-7.621-5.278.129-7.26 1.552-11.319 1.552-3.989 0-7.657-2.545-9.814-6.809l-.818-1.619 1.741.507c4.613 1.338 9.225-2.135 9.225-6.927 0-6.182-5.029-11.212-11.211-11.212-6.183 0-11.212 5.03-11.212 11.212.001 16.382 14.898 29.71 33.211 29.71 11.126 0 18.133-2.892 25.552-5.955 5.353-2.21 6.381-5.623 6.411-11.437zm115.181 1.599L256.637 305h-1.683l-6.847-18.314c-6.025 9.342-17.259 15.642-30.106 15.642-23.993 0-29.162-13-58-13-28.841 0-34.006 13-58.001 13-12.848 0-24.082-6.301-30.107-15.642L65.046 305h-1.683l7.493-20.042c-2.328-4.195-3.645-8.92-3.645-13.918.002-7.05 5.739-12.786 12.79-12.786 7.051 0 12.788 5.737 12.788 12.788 0 5.096-4.352 9.163-9.483 8.761 1.906 2.852 4.65 4.511 7.572 4.511 3.976 0 6.042-1.562 12.122-1.562h.789v.788c0 3.91-1.009 6.861-2.916 8.541 7.142-.9 8.14-5.593 17.38-5.593h.788v.788c0 2.387-.115 4.781-.971 6.702 6.53-4.124 8.627-12.226 16.683-12.226h.788v.788c0 3.086-.01 6.918-2.186 9.939 6.851-2.578 14.737-4.727 26.646-4.727s19.795 2.149 26.646 4.727c-2.177-3.021-2.187-6.853-2.187-9.939v-.788h.789c8.056 0 10.152 8.102 16.682 12.226-.855-1.921-.971-4.315-.971-6.702v-.788h.789c9.241 0 10.232 4.693 17.379 5.593-1.906-1.68-2.915-4.631-2.915-8.541v-.788h.788c6.081 0 8.146 1.562 12.123 1.562 2.921 0 5.665-1.659 7.571-4.511-5.13.402-9.482-3.664-9.482-8.761 0-7.051 5.737-12.788 12.788-12.788s12.787 5.736 12.788 12.786v.002c0 4.998-1.317 9.722-3.645 13.917zm-59.615 1.368c-.593-.433-1.196-.782-1.848-1.018.019.295.044.583.074.867 1.032 2.49 2.554 4.709 4.425 6.597.313.128.633.257.944.385 1.481.612 2.947 1.214 4.431 1.789-3.491-2.005-6.327-4.983-8.026-8.62zm-59.057 0c-1.699 3.637-4.534 6.615-8.026 8.62 1.485-.575 2.95-1.177 4.431-1.789l.944-.385c1.871-1.888 3.393-4.107 4.426-6.597.029-.284.055-.572.073-.867-.651.236-1.255.585-1.848 1.018zm114.317-15.285a4.794 4.794 0 00-4.788-4.788 4.794 4.794 0 00-4.788 4.788v.788h1.576v-.788a3.216 3.216 0 013.212-3.212 3.216 3.216 0 013.212 3.212c0 6.057-2.536 11.532-6.785 14.646-5.824 4.273-12.811 2.532-16.302.396-.193-.022-.374-.049-.577-.067.109.678.27 1.285.472 1.823 5.048 2.707 12.007 3.03 17.339-.881 4.652-3.41 7.429-9.36 7.429-15.917zm-4.788-8.788c-4.846 0-8.788 3.942-8.788 8.788a4.794 4.794 0 004.788 4.788 4.794 4.794 0 004.788-4.788v-.788h-1.576v.788a3.216 3.216 0 01-3.212 3.212 3.216 3.216 0 01-3.212-3.212 7.22 7.22 0 017.212-7.212 7.22 7.22 0 017.212 7.212c0 9.819-6.562 19.233-16.329 23.425-8.588 3.688-17.407 2.379-23.592-3.498-.151-.144-.365-.36-.602-.614a13.435 13.435 0 00-2.502-.557l.002.025a18.963 18.963 0 002.016 2.289c6.601 6.271 16.04 7.779 25.299 3.804 10.338-4.437 17.284-14.435 17.284-24.876 0-4.845-3.942-8.786-8.788-8.786zM92.23 57.71l11.207-24.974c-.48.006-.945.021-1.436.021-.1 0-.198-.005-.298-.005l-10.258 22.86.785 2.098zm4.759-25.135l-2.533 5.211c.252.801.43 1.633.545 2.485l3.694-7.598a69.075 69.075 0 01-1.706-.098zm53.526-11.551l-1.149 15.352a41.01 41.01 0 011.61-.387l1.149-15.363c-.542.118-1.076.259-1.61.398zm4.382-.892l-.57 15.255a41.198 41.198 0 011.583-.194l.57-15.244c-.532.053-1.063.108-1.583.183zM121.525 69.99h1.604C126.16 52.377 141.535 38.93 160 38.93c18.465 0 33.839 13.447 36.871 31.06h1.604c-3.04-18.511-19.104-32.636-38.475-32.636-19.371 0-35.435 14.125-38.475 32.636zm19.825-45.865l-2.495 16.679a40.029 40.029 0 011.74-.981l2.445-16.348c-.559.214-1.123.428-1.69.65zm4.661-1.732l-1.763 15.71a40.991 40.991 0 011.659-.647l1.751-15.611c-.548.175-1.099.358-1.647.548zm108.202 143.944l-9.219-22.408c-7.273 6.434-16.812 9.964-26.994 9.964-25.068 0-30.162-13-57.999-13-27.841 0-32.928 13-58 13-10.183 0-19.722-3.53-26.995-9.964l-9.219 22.408c10.601 7.184 23.108 10.979 36.214 10.979 29.373 0 37.733-13 57.999-13 20.267 0 28.625 13 58 13 13.105 0 25.613-3.795 36.213-10.979zm-8.624-25.106l10.565 25.683c-11.737 8.133-24.61 11.978-38.154 11.979-29.725 0-38.174-13-58-13-19.829 0-28.274 13-57.999 13-13.572-.001-26.44-3.861-38.155-11.979l10.565-25.683c8.045 7.55 17.202 11.085 27.59 11.085 24.609 0 29.797-13 58-13 28.204 0 33.389 13 57.999 13 10.389 0 19.546-3.536 27.589-11.085zm-63.764 162.961a74.268 74.268 0 00-2.321-.805l.928 1.613h1.854l-.461-.808zm-29.062-3.425V305h1.518l-.004-2.35c.712.77 1.43 1.562 2.147 2.35h2.197a300.742 300.742 0 00-4.026-4.394c-.623.047-1.235.099-1.832.161zm17.796.432V305h1.569v-1.95a64.89 64.89 0 015.681 1.402 843.69 843.69 0 00-.025-1.603 56.67 56.67 0 00-7.225-1.65zm111.729-.095c-2.317 0-3.745 1.472-3.745 3.896h1.459-.001c0-1.502.94-2.55 2.287-2.55 1.346 0 2.286 1.048 2.286 2.55h1.458c0-2.427-1.431-3.896-3.744-3.896zm-121.5-281.316c-.265-.006-.519-.031-.788-.031s-.523.025-.788.031V35.01c.263-.005.524-.02.788-.02s.525.015.788.02V19.788zm-44.976 270.035l.002-.025c-.946.12-1.759.315-2.502.557-.238.254-.451.47-.602.614-6.185 5.877-15.005 7.186-23.593 3.498-9.766-4.192-16.328-13.606-16.328-23.425a7.22 7.22 0 017.212-7.212c3.976 0 7.211 3.235 7.211 7.212A3.216 3.216 0 0184 274.254a3.215 3.215 0 01-3.211-3.212v-.788h-1.577v.788A4.794 4.794 0 0084 275.83a4.794 4.794 0 004.789-4.788c0-4.846-3.943-8.788-8.788-8.788-4.846 0-8.789 3.941-8.789 8.786 0 10.441 6.946 20.439 17.284 24.876 9.36 4.018 18.772 2.397 25.299-3.804a18.843 18.843 0 002.017-2.289zm46.348 10.614a74.406 74.406 0 00-1.513-.023l.018 4.586h1.495v-4.563zM76.185 305h1.727l.503-1.12c.651.397 1.323.758 1.994 1.12h3.61a49.775 49.775 0 01-6.299-3.422L76.185 305zM218 304.816c-24.61 0-29.795-13-57.999-13-28.203 0-33.391 13-58 13-10.388 0-19.545-3.535-27.59-11.085L69.775 305h1.705l3.526-8.571c4.611 4.079 10.135 6.986 16.154 8.571h23.976c14.928-3.351 22.67-11.607 44.865-11.607 22.192 0 29.938 8.256 44.865 11.607h23.974c6.019-1.585 11.543-4.492 16.154-8.571L248.52 305h1.705l-4.636-11.269c-8.043 7.549-17.2 11.085-27.589 11.085zM80.001 267.83a3.216 3.216 0 013.211 3.212v.788h1.577v-.788a4.794 4.794 0 00-4.788-4.788 4.794 4.794 0 00-4.789 4.788c0 6.557 2.777 12.507 7.429 15.917 5.277 3.87 12.239 3.616 17.339.881a9.45 9.45 0 00.473-1.823c-.203.018-.385.045-.577.067-3.486 2.133-10.472 3.881-16.303-.396-4.248-3.114-6.784-8.589-6.784-14.646a3.215 3.215 0 013.212-3.212zM123.646 305h4.372c8.863-3.574 17.091-7.607 31.983-7.607 14.895 0 23.12 4.033 31.981 7.607h4.375c-10.537-3.836-18.918-9.184-36.356-9.184-17.441 0-25.818 5.348-36.355 9.184zm11.932 0h2.563c-.701-.314-1.599-.3-2.563 0zm100.404 0h3.609c.671-.362 1.343-.723 1.994-1.12l.503 1.12h1.728l-1.536-3.422a49.673 49.673 0 01-6.298 3.422zm-91.315-2.818c-.36.943-.71 1.878-1.065 2.818h1.585l.62-1.717.8 1.717h1.722a456.904 456.904 0 00-1.649-3.282c-.686.145-1.357.3-2.013.464zm127.911-.932h-2.345c-.027.123-.415 2.128-.729 3.75h1.44c.244-1.183.451-2.203.451-2.241h.029l.538 2.241h1.45c-.357-1.613-.802-3.606-.834-3.75zm-83.694-146.466l-1.729-.711-2.622 2.369-2.708-4.75a74.268 74.268 0 00-2.321-.805l3.663 6.369-3.972 3.533c.564.202 1.125.409 1.682.62l3.126-2.701 2.825 4.913 2.382 1.025-3.86-6.771 3.534-3.091zm-16.756-.375c1.624.385 3.25.837 4.873 1.355v-1.575a66.934 66.934 0 00-4.873-1.355v-2.284a64.89 64.89 0 015.681 1.402 843.69 843.69 0 00-.025-1.603 56.67 56.67 0 00-7.225-1.65v9.634c2.652.533 5.111 1.242 7.484 2.053l.025-1.619a66.97 66.97 0 00-5.94-1.705v-2.653zm-11.454.393c-2.017-2.318-4.063-4.54-6.079-6.696-.623.047-1.235.099-1.832.161v9.508c.503-.067 1.009-.13 1.528-.184l-.014-7.441c2.128 2.3 4.286 4.676 6.414 7.158.49.005.979.015 1.469.03v-9.401a74.406 74.406 0 00-1.513-.023l.027 6.888zm-39.856 7.689c1.607-.429 2.231-1.407 2.231-1.914 0-1.134-.581-1.062-2.145-.643-.906.241-1.811.462-2.716.665v2.462a69.032 69.032 0 002.63-.57zm1.628.939a133.843 133.843 0 003.038 3.243c-.574.191-1.157.377-1.751.559a131.032 131.032 0 01-2.974-3.163 72.32 72.32 0 01-2.571.601v4.012c-.542.118-1.087.233-1.649.34v-9.638c1-.222 2.446-.506 4.393-1.023 2.646-.713 3.895-.195 3.895 1.618 0 1.799-1.28 2.865-2.381 3.451zm13.031-1.854c-2.066.671-2.834-.722-2.834-2.89 0-1.729 1.206-4.047 2.937-4.607 1.077-.347 2.092-.257 2.404.831l1.536-.476c-.362-2.014-2.055-2.547-4.001-1.919-2.725.88-4.485 3.5-4.485 6.676 0 3.096 1.663 4.798 4.505 3.879 2.07-.669 3.54-2.287 3.985-4.307l-1.657.428c-.363 1.147-1.2 2.001-2.39 2.385zm12.323-6.532c-.552-1.163-1.993-4.261-1.993-4.261-.122.337-1.408 3.899-1.919 5.33a25.69 25.69 0 013.912-1.069zm-1.12-5.826a436.137 436.137 0 014.366 8.815c-.212.035-1.488.26-1.692.319a483.88 483.88 0 00-.916-1.949 25.672 25.672 0 00-5.174 1.467c-.28.786-.563 1.578-.836 2.353-.66.22-1.313.449-1.961.685a872.445 872.445 0 014.2-11.226 56.33 56.33 0 012.013-.464zm-19.363 16.822a104.91 104.91 0 001.534-.563v-10.06c-.507.204-1.018.407-1.534.607v10.016zm120.618-.512l-6.35-14.148c-7.001 4.263-15.135 6.512-23.585 6.513-26.019 0-31.26-13-57.999-13-26.732 0-31.988 13-58 13-8.451-.001-16.585-2.25-23.586-6.513l-6.35 14.148c9.018 5.097 19.353 7.788 29.936 7.788 29.254 0 35.903-13 57.999-13 22.092 0 28.749 13 58 13 10.583 0 20.917-2.691 29.935-7.788zm-5.655-16.45l7.676 17.103c-10.089 5.86-20.681 8.711-31.956 8.712-29.484 0-36.444-13-58-13-21.563 0-28.51 13-57.999 13-11.282-.001-21.872-2.856-31.957-8.712l7.676-17.103c7.233 4.615 14.99 7.238 24.281 7.238 25.66 0 30.813-13 58-13 27.182 0 32.347 13 57.999 13 9.317 0 17.072-2.639 24.28-7.238zm-6.669 12.786c-1.421.059-2.556.095-2.561-.905-.005-.881.838-1.624 2.199-1.939.815-.188 1.792-.162 2.079.619a50.565 50.565 0 001.695-.663c-.544-1.501-2.242-1.763-3.803-1.39-2.458.587-3.98 2.017-3.972 3.733.011 2.439 2.736 2.192 3.771 2.133 1.613-.085 2.647-.072 2.652 1.012.003.713-.829 1.629-2.425 1.998-.675.157-1.456.143-1.985-.3l-1.897.394c.572 1.14 1.97 1.874 3.912 1.413 2.585-.618 4.251-2.152 4.242-3.909-.009-2.294-1.986-2.279-3.907-2.196zm-28.903.918c0-1.063-.761-1.255-2.345-1.558l-2.453-.494v2.361l2.533.554c1.149.218 2.265.264 2.265-.863zm-.681 2.48l2.701 4.537c-.717-.08-1.417-.17-2.102-.268l-2.618-4.403-2.098-.4v3.964a62.175 62.175 0 01-1.641-.377v-9.731c1.854.516 4.286 1.053 4.289 1.054 2.623.499 3.847 1.58 3.847 3.398 0 1.432-.981 2.098-2.378 2.226zm-9.173-4.869c0-1.122-1.05-1.659-2.748-2.219l-1.854-.579v2.889l1.854.579c1.656.545 2.748.728 2.748-.67zm1.605.279c0 1.493-1.293 2.933-4.208 1.974l-1.999-.643v3.835l-1.603-.599v-9.812c3.28 1.024 4.296 1.42 4.868 1.649 2.016.862 2.942 1.914 2.942 3.596zm14.249 5.473c1.695.138 3.425.211 5.207.211v-1.53c-1.72 0-3.462-.069-5.207-.212v-2.257c2.207.153 4.048.173 6.071.133l-.027-1.608a67.106 67.106 0 01-7.671-.298v9.442c3.037.246 5.316.295 7.953.248.002-.118.02-1.4.023-1.519a63.535 63.535 0 01-6.349-.202v-2.408zm12.732-1.891c-1.422-.11-2.651-.206-2.651-1.197 0-.858.873-1.48 2.278-1.623.914-.093 1.97.088 2.183.997a62.902 62.902 0 001.792-.383c-.428-1.619-2.217-2.212-3.985-2.018-2.509.271-4.13 1.517-4.13 3.174-.001 2.362 2.769 2.457 3.881 2.532 1.682.11 2.746.254 2.746 1.313 0 .694-.864 1.484-2.512 1.651-.826.081-1.784-.086-2.253-.776l-1.908.228c.487 1.461 2.163 2.237 4.171 2.025 2.68-.291 4.411-1.591 4.411-3.312 0-2.299-2.137-2.465-4.023-2.611zm-97.619-23.981c1.871-1.888 3.393-4.107 4.426-6.597.029-.284.055-.572.073-.867-.651.236-1.255.585-1.848 1.018-1.699 3.637-4.534 6.615-8.026 8.62 1.485-.575 2.95-1.177 4.431-1.789l.944-.385zM223.01 32.576a74.02 74.02 0 01-1.706.097l3.695 7.6a14.91 14.91 0 01.545-2.485l-2.534-5.212zm-5.01.181c-.491 0-.957-.015-1.437-.021L227.77 57.71l.785-2.099-10.258-22.859c-.099 0-.198.005-.297.005zm-6.281-.189l13.333 32.412.811-2.17-12.407-30.162c-.581-.025-1.172-.045-1.737-.08zm-42.234-11.544c-.534-.138-1.068-.279-1.61-.397l1.149 15.362c.54.12 1.078.246 1.61.387l-1.149-15.352zm4.505 1.37c-.549-.191-1.1-.374-1.648-.549l1.751 15.611c.559.203 1.111.421 1.659.647l-1.762-15.709zm4.661 1.732c-.568-.222-1.132-.437-1.691-.65l2.445 16.347c.589.314 1.169.641 1.74.981l-2.494-16.678zm-71.11 142.118a65.368 65.368 0 005.319-.59v-1.575a65.82 65.82 0 01-5.319.591v-2.357a66.009 66.009 0 006.199-.732l-.026-1.638a65.407 65.407 0 01-7.807.854v9.415a75.889 75.889 0 008.093-.763l.024-1.547c-2.158.32-4.322.532-6.483.635v-2.293zm-21.622-2.199l-1.903-5.24c-.116.276-.913 2.054-1.718 3.839 1.206.516 2.414.981 3.621 1.401zm-.461-6.002l3.921 10.872a59.276 59.276 0 01-1.852-.441l-.977-2.691a54.922 54.922 0 01-4.861-1.79c-.442.979-.827 1.829-1.028 2.269-.495-.194-.994-.377-1.482-.585l3.926-8.552a48.55 48.55 0 002.353.918zm14.655 2.806l-3.069 7.651c-.408-1.14-2.649-6.857-3.205-8.284a49.417 49.417 0 01-2.789-.549l-.068 9.576c.535.102 1.07.199 1.609.286-.004-1.681-.017-6.907-.03-8.013.424 1.163 2.889 7.074 3.463 8.465.619.064 1.24.119 1.862.162.5-1.131 3.06-6.862 3.494-8.051-.014 1.145-.027 6.733-.031 8.193.218.003.436.019.654.019.328 0 .637-.01.959-.014v-9.401c-.321.004-.632.016-.959.016-.631 0-1.26-.032-1.89-.056zm-11.617-17.433c9.36 4.018 18.772 2.397 25.299-3.804a18.843 18.843 0 002.017-2.289l.002-.025c-.946.12-1.759.315-2.502.557-.238.254-.451.47-.602.614-6.185 5.877-15.005 7.186-23.593 3.498-9.766-4.192-16.328-13.606-16.328-23.425a7.22 7.22 0 017.212-7.212c3.976 0 7.211 3.235 7.211 7.212A3.216 3.216 0 0184 121.754a3.215 3.215 0 01-3.211-3.212v-.788h-1.577v.788A4.794 4.794 0 0084 123.33a4.794 4.794 0 004.789-4.788c0-4.846-3.943-8.788-8.788-8.788-4.846 0-8.789 3.941-8.789 8.786 0 10.441 6.946 20.439 17.284 24.876zm-8.495-28.086a3.216 3.216 0 013.211 3.212v.788h1.577v-.788a4.794 4.794 0 00-4.788-4.788 4.794 4.794 0 00-4.789 4.788c0 6.557 2.777 12.507 7.429 15.917 5.277 3.87 12.239 3.616 17.339.881a9.45 9.45 0 00.473-1.823c-.203.018-.385.045-.577.067-3.486 2.133-10.472 3.881-16.303-.396-4.248-3.114-6.784-8.589-6.784-14.646a3.215 3.215 0 013.212-3.212zm121.783-83.942l16.973 50.429.875-2.341-16.083-47.786c-.601-.094-1.182-.198-1.765-.302zm-36.682-11.256c-.52-.075-1.051-.13-1.583-.183l.57 15.244c.531.052 1.058.122 1.583.194l-.57-15.255zm41.682 11.991l15.278 40.854.842-2.25-14.365-38.413a87.377 87.377 0 01-1.755-.191zm33.217 77.631c-4.846 0-8.788 3.942-8.788 8.788a4.794 4.794 0 004.788 4.788 4.794 4.794 0 004.788-4.788v-.788h-1.576v.788a3.216 3.216 0 01-3.212 3.212 3.216 3.216 0 01-3.212-3.212 7.22 7.22 0 017.212-7.212 7.22 7.22 0 017.212 7.212c0 9.819-6.562 19.233-16.329 23.425-8.588 3.688-17.407 2.379-23.592-3.498-.151-.144-.365-.36-.602-.614a13.435 13.435 0 00-2.502-.557l.002.025a18.963 18.963 0 002.016 2.289c6.601 6.271 16.04 7.779 25.299 3.804 10.338-4.437 17.284-14.435 17.284-24.876 0-4.845-3.942-8.786-8.788-8.786zM42.65 207.89c.577.019 1.121.057 1.643.109l13.959-37.328a73.32 73.32 0 01-1.306-1.008L42.65 207.89zm23.166-81.722l-28.31 84.114c.361.417.576.666 1.199 1.378l27.903-82.904a30.23 30.23 0 01-.792-2.588zm-15.29 83.507c.494.231.959.471 1.406.714l15.247-33.976c-.463-.252-.926-.503-1.383-.765l-15.27 34.027zm19.677-31.695l-12.721 26.167c.61.008 1.185.029 1.723.063l12.427-25.563c-.477-.219-.956-.437-1.429-.667zm-23.422 30.415c.542.122 1.052.261 1.533.415l14.411-35.033c-.45-.288-.896-.583-1.341-.882l-14.603 35.5zm-8.262-49.677h-1.603c-2.929 17.736-18.363 31.31-36.916 31.31v1.576c19.458 0 35.584-14.252 38.519-32.886zm30.226 44.53a11.184 11.184 0 01-1.16-1.154l-1.793 3.196c.561.12 1.102.216 1.646.288l1.307-2.33zm-50.936 24.954a843.69 843.69 0 00-.025-1.603 56.67 56.67 0 00-7.225-1.65v9.634c2.652.533 5.111 1.242 7.484 2.053l.025-1.619a66.97 66.97 0 00-5.94-1.705v-2.653c1.624.385 3.25.837 4.873 1.355v-1.575a66.934 66.934 0 00-4.873-1.355V226.8a64.89 64.89 0 015.681 1.402zm72.147 14.229l-7.676-17.103c-7.208 4.599-14.963 7.238-24.281 7.238-25.652 0-30.816-13-57.998-13H0v1.577h.001c26.739 0 31.98 13 57.998 13 8.451-.001 16.585-2.25 23.586-6.513l6.35 14.148c-9.018 5.097-19.353 7.788-29.936 7.788-29.25 0-35.907-12.999-57.999-13v1.577c21.556 0 28.517 13 57.999 13 11.276-.001 21.868-2.852 31.957-8.712zM0 232.773c.23.265.462.518.691.785.49.005.979.015 1.469.03v-9.401a74.517 74.517 0 00-1.513-.023l.027 6.888c-.224-.257-.45-.501-.674-.755v2.476zm9.359-23.149l1.274-17.042c-.531.141-1.069.267-1.609.387L7.79 209.471c.532.046 1.055.097 1.569.153zm-4.274-.348l.587-15.705c-.525.072-1.051.142-1.583.194l-.578 15.437c.534.02 1.057.045 1.574.074zm8.496.926l2.171-19.347c-.548.226-1.1.444-1.659.647l-2.071 18.457c.53.077 1.05.158 1.559.243zm2.443-110.831l-1.096 14.657c.516.2 1.028.406 1.534.626l1.099-14.7a135.62 135.62 0 00-1.537-.583zm1.585-93.153c-.793 7.91-3.426 17.097-8.724 22.832.587.131 1.157.275 1.71.43 4.449-5.18 7.642-13.528 8.6-23.262h-1.586zm11.227 0h-1.591c-1.424 10.413-6.401 19.28-13.28 24.45.558.245 1.085.503 1.576.776 6.933-5.513 11.896-14.605 13.295-25.226zM5.704 28.481C7.717 23.259 9.15 15.349 9.599 6.218h-1.58c-.487 9.769-2.099 17.395-3.953 22.073.556.052 1.1.118 1.638.19zM.788 6.218H0v21.886c.061.002.213.008.788.018V6.218zM21.258 0h-6.129v3.727h1.605V1.058h1.537c.025.036 1.734 2.633 1.758 2.669h1.895L19.951.858C20.54.683 20.972.389 21.258 0zm207.487 279.498a11.184 11.184 0 01-1.16-1.154l-1.793 3.196c.561.12 1.102.216 1.646.288l1.307-2.33zM31.952 105.261l-2.706 18.091c.47.471.929.952 1.377 1.445l2.855-19.087c-.514-.148-1.027-.295-1.526-.449zm-7.875-2.757l-1.717 15.309c.499.321.991.653 1.475.995l1.764-15.728c-.512-.191-1.021-.383-1.522-.576zm-3.2 135.155l3.126-2.701 2.825 4.913 2.382 1.025-3.86-6.771 3.534-3.091-1.729-.711-2.622 2.369-2.708-4.75a74.268 74.268 0 00-2.321-.805l3.663 6.369-3.972 3.533c.564.202 1.125.409 1.682.62zm40.905-33.174c.578.088 1.119.185 1.628.288l2.618-5.002a11.053 11.053 0 01-.755-1.954l-3.491 6.668zM0 115.18c18.465 0 33.839 13.447 36.871 31.06h1.604C35.435 127.729 19.371 113.604 0 113.604v1.576zM1.566 2.803C.739 2.803.134 2.46.025 1.622H0v2.207a4.511 4.511 0 001.585.267c1.577 0 2.949-.802 3-2.375C4.614.829 4.262.333 3.718 0H0v.17c.392.154.829.279 1.291.411.72.208 1.564.445 1.589 1.17-.019.596-.522 1.052-1.314 1.052zm6.148 94.043l-.562 15.023a40.38 40.38 0 011.565.299l.559-14.947a44.951 44.951 0 00-1.562-.375zM26.259 0h-1.746l1.567 3.727h1.973L29.619 0h-1.704l-.809 2.007L26.259 0zM8.885 123.658c5.282 5.717 7.895 14.84 8.703 22.582h1.584c-.987-9.628-4.166-17.876-8.577-23.012-.553.155-1.123.299-1.71.43zm31.53 26.292c.827 0 1.382.43 1.572 1.138h1.737c-.208-1.494-1.494-2.484-3.309-2.484-2.222 0-3.549 1.457-3.549 3.896 0 2.438 1.315 3.895 3.516 3.895 1.817 0 3.219-.909 3.407-2.731h-1.74c-.139.878-.74 1.385-1.667 1.385-1.356 0-1.914-1.2-1.914-2.549 0-1.573.746-2.55 1.947-2.55zm-19.269 38.204c-.572.341-1.152.668-1.741.981l-3.223 21.551c.524.108 1.04.22 1.543.336l3.421-22.868zm11.861-31.927h1.575v-7.477h-1.575v7.477zM.788 209.145v-15.197c-.263.005-.524.02-.788.02v15.17h.001c.267 0 .524.005.787.007zm0-50.427H0v21.886c.061.002.213.008.788.018v-21.904zm.576-10.317c-.488 0-.952.091-1.364.255v4.014c.392.154.829.279 1.291.411.72.208 1.564.445 1.589 1.17-.019.596-.522 1.052-1.314 1.052-.827 0-1.432-.343-1.541-1.181H0v2.207a4.511 4.511 0 001.585.267c1.577 0 2.949-.802 3-2.375.052-1.626-1.135-1.954-2.51-2.333-.824-.228-1.912-.53-1.884-1.385.018-.597.651-.848 1.251-.829.887.028 1.268.455 1.324 1.146h1.651c-.062-1.72-1.33-2.419-3.053-2.419zM0 124.604v21.636h.788v-21.654c-.829.015-.693.021-.788.018zm52.415 21.636h1.644l11.253-37.613c-.564.057-1.126.117-1.693.16L52.415 146.24zm-.708 3.926v-1.416h-5.74v7.477h5.919v-1.396h-4.315v-1.743h3.475v-1.369h-3.475v-1.553h4.136zm-7.576 8.552h-1.63l-11.934 45.589c.497.234.973.494 1.425.781l12.139-46.37zm-10.097 17.386a41.487 41.487 0 01-2.291 3.014l-5.399 24.064c.545.044 1.061.129 1.562.234l6.128-27.312zm-7 7.792a41.216 41.216 0 01-1.892 1.545l-4.901 26.21c.52.141 1.025.286 1.522.433l5.271-28.188zm23.292-25.178h-1.645l-14.402 48.139c.442.402.865.819 1.272 1.246l14.775-49.385zM5.704 180.98c2.013-5.221 3.446-13.131 3.895-22.262h-1.58c-.487 9.769-2.099 17.395-3.953 22.073.556.052 1.1.118 1.638.189zm6.955-30.814v-1.416H6.918v7.477h5.919v-1.396H8.522v-1.743h3.476v-1.369H8.522v-1.553h4.137zm83.495 92.998l-10.565-25.683c-8.043 7.549-17.2 11.085-27.59 11.085-24.609 0-29.794-13-57.998-13H0v1.577h.001c27.837 0 32.931 13 57.998 13 10.183 0 19.722-3.53 26.995-9.964l9.219 22.408c-10.6 7.184-23.108 10.979-36.214 10.979-29.374 0-37.731-12.999-57.999-13v1.577c19.826 0 28.275 13 57.999 13 13.545-.001 26.418-3.846 38.155-11.979zm-20.905-7.894c.814-.188 1.792-.162 2.079.619a50.565 50.565 0 001.695-.663c-.544-1.501-2.242-1.763-3.803-1.39-2.458.587-3.98 2.017-3.972 3.733.011 2.439 2.736 2.192 3.771 2.133 1.613-.085 2.647-.072 2.652 1.012.003.713-.829 1.629-2.425 1.998-.675.157-1.456.143-1.985-.3l-1.897.394c.572 1.14 1.97 1.874 3.912 1.413 2.585-.618 4.251-2.152 4.242-3.909-.01-2.294-1.986-2.279-3.907-2.196-1.421.059-2.556.095-2.561-.905-.005-.881.838-1.624 2.199-1.939zm-28.541 3.762c0-1.063-.761-1.255-2.345-1.558l-2.453-.494v2.361l2.533.554c1.149.218 2.265.264 2.265-.863zm-.681 2.48l2.701 4.537c-.717-.08-1.417-.17-2.102-.268l-2.618-4.403-2.098-.4v3.964a61.272 61.272 0 01-1.641-.377v-9.731c1.854.516 4.286 1.053 4.289 1.054 2.623.499 3.847 1.58 3.847 3.398 0 1.432-.981 2.098-2.378 2.226zm19.015 3.438c-.826.081-1.785-.086-2.253-.776l-1.908.228c.487 1.461 2.163 2.237 4.171 2.025 2.68-.291 4.411-1.591 4.411-3.312 0-2.299-2.137-2.465-4.023-2.611-1.422-.11-2.651-.206-2.651-1.197 0-.858.873-1.48 2.278-1.623.914-.093 1.97.088 2.183.997a62.902 62.902 0 001.792-.383c-.428-1.619-2.217-2.212-3.985-2.018-2.509.271-4.13 1.517-4.13 3.174-.001 2.362 2.769 2.457 3.881 2.532 1.682.11 2.745.254 2.746 1.313 0 .694-.864 1.484-2.512 1.651zm-6.263-6.21l-.027-1.608a67.116 67.116 0 01-7.671-.298v9.442c3.037.246 5.316.295 7.953.248.002-.118.02-1.4.023-1.519a63.535 63.535 0 01-6.349-.202v-2.408c1.695.138 3.425.211 5.207.211v-1.53c-1.72 0-3.462-.069-5.207-.212v-2.257c2.207.153 4.048.173 6.071.133zm-29.943-80.022h-1.591c-1.424 10.413-6.401 19.28-13.28 24.449.558.246 1.085.504 1.576.777 6.933-5.513 11.896-14.605 13.295-25.226zm.591-9.968l-2.321 5.757-2.429-5.757h-1.74l3.143 7.477h1.973l3.142-7.477h-1.768zm-13.886-27.486c-.491.273-1.018.531-1.576.777 6.824 5.128 11.778 13.894 13.247 24.199h1.592c-1.444-10.513-6.384-19.506-13.263-24.976zM.788 56.645V41.448c-.263.005-.524.02-.788.02v15.17h.001c.267 0 .524.005.787.007zm31.464 180.089l1.854.579c1.657.545 2.748.728 2.748-.67 0-1.122-1.05-1.659-2.748-2.219l-1.854-.579v2.889zm0 1.519v3.835l-1.603-.599v-9.812c3.28 1.024 4.296 1.42 4.868 1.649 2.016.862 2.943 1.914 2.943 3.596 0 1.493-1.294 2.933-4.208 1.974l-2-.643zM4.086 124.415c2.502 6.241 3.573 15.083 3.921 21.825h1.582c-.463-9.026-1.891-16.838-3.885-22.012a42.23 42.23 0 01-1.618.187zm15.109 34.303h-1.586c-.793 7.91-3.426 17.097-8.724 22.832.587.131 1.157.275 1.71.43 4.449-5.18 7.642-13.528 8.6-23.262zm.79-7.591c0-.675-.462-.989-1.454-.989h-1.797v1.966h1.765c.772 0 1.486-.118 1.486-.977zm-.034 2.231l1.973 2.869h-1.895c-.024-.036-1.733-2.633-1.758-2.669h-1.537v2.669h-1.605v-7.477h3.411c1.742 0 3.134.609 3.134 2.37 0 1.1-.566 1.895-1.723 2.238zM12.837 2.331H8.522V.588h3.476V0h-5.08v3.727h5.919V2.331zM0 37.528v1.576c19.458 0 35.584-14.252 38.519-32.886h-1.603C33.987 23.954 18.553 37.528 0 37.528zm35.311-15.875l6.306 33.721c.523 0 .934.007 1.61.044l-6.709-35.884a40.887 40.887 0 01-1.207 2.119zM0 80.273c.23.265.462.518.691.786.49.004.979.014 1.469.029v-9.401a74.517 74.517 0 00-1.513-.023l.027 6.888c-.224-.257-.45-.501-.674-.755v2.476zm146.418 206.179c.51-.085 1.03-.166 1.56-.242l-2.071-18.458a40.991 40.991 0 01-1.659-.647l2.17 19.347zM59.241 51.712L47.332 6.218h-1.63l11.893 45.431c.58.009 1.132.03 1.646.063zM16.39 58.229a65.7 65.7 0 011.607.354l-1.535-20.529c-.506.22-1.018.426-1.534.626l1.462 19.549zm-8.635-1.261c.537.047 1.064.098 1.582.154l-.62-16.582a40.38 40.38 0 01-1.565.299l.603 16.129zm16.371-6.33h1.122c.16 0 .31.014.466.019L23.835 33.9c-.484.342-.976.674-1.475.995l1.766 15.743zm74.092 230.097l-3.49-6.666c-.192.68-.444 1.334-.755 1.955l2.617 4.999c.509-.103 1.05-.2 1.628-.288zm52.423 5.139a85.316 85.316 0 011.569-.153l-1.234-16.502a41.01 41.01 0 01-1.61-.387l1.275 17.042zm4.273-.348a84.55 84.55 0 011.574-.074l-.578-15.437a41.198 41.198 0 01-1.583-.194l.587 15.705zM32.804 53.144c.645.473 1.251.989 1.823 1.532l-4.004-26.765c-.448.493-.907.974-1.378 1.445l3.559 23.788zM65.863 291.56l-12.407-30.162c-.581-.025-1.172-.045-1.736-.08l13.332 32.412.811-2.17zm14.138-105.556c-4.846 0-8.788 3.942-8.788 8.788a4.794 4.794 0 004.788 4.788 4.794 4.794 0 004.788-4.788v-.788h-1.576v.788a3.216 3.216 0 01-3.212 3.212 3.216 3.216 0 01-3.212-3.212 7.22 7.22 0 017.212-7.212 7.22 7.22 0 017.212 7.212c0 9.819-6.562 19.233-16.329 23.425-8.588 3.688-17.407 2.379-23.593-3.498-.15-.144-.364-.36-.601-.614a13.446 13.446 0 00-2.503-.557l.003.025a18.963 18.963 0 002.016 2.289c6.601 6.271 16.04 7.779 25.299 3.804 10.338-4.437 17.284-14.435 17.284-24.876 0-4.845-3.942-8.786-8.788-8.786zm-11.446 98.357l-10.258-22.859c-.1 0-.198.005-.297.005-.491 0-.957-.015-1.437-.021L67.77 286.46l.785-2.099zM96.154 90.664L85.589 64.981c-8.043 7.549-17.2 11.085-27.59 11.085-24.609 0-29.794-13-57.998-13H0v1.577h.001c27.837 0 32.931 13 57.998 13 10.183 0 19.722-3.53 26.995-9.964l9.219 22.408c-10.6 7.185-23.108 10.979-36.214 10.979-29.374 0-37.731-12.999-57.999-13v1.577c19.826 0 28.275 13 57.999 13 13.545-.001 26.418-3.846 38.155-11.979zM84.789 194.792a4.794 4.794 0 00-4.788-4.788 4.794 4.794 0 00-4.788 4.788v.788h1.576v-.788a3.216 3.216 0 013.212-3.212 3.216 3.216 0 013.212 3.212c0 6.057-2.536 11.532-6.785 14.646-5.824 4.273-12.811 2.532-16.302.396-.193-.022-.374-.049-.577-.067.109.678.27 1.285.472 1.823 5.048 2.707 12.007 3.03 17.339-.881 4.652-3.41 7.429-9.36 7.429-15.917zM33.007 3.727h1.575V0h-1.575v3.727zm69.51 276.67l-12.721-26.166c-.473.23-.951.447-1.429.666l12.428 25.563a34.516 34.516 0 011.722-.063zM40.034 10.54l10.46 46.621a27.43 27.43 0 011.826.941L40.813 6.818a41.203 41.203 0 01-.779 3.722zm51.179 184.251c-.001-6.181-5.03-11.211-11.212-11.211-6.182 0-11.212 5.03-11.212 11.212 0 4.783 4.606 8.267 9.225 6.927l1.742-.507-.819 1.619c-2.156 4.264-5.825 6.809-9.814 6.809-4.059 0-6.04-1.423-11.318-1.552.202 5.072 2.209 8.398 7.249 7.621 2.137.36 3.769.343 5.451.14a23.118 23.118 0 01-8.757 1.715c-9.963 0-10.307-5.444-19.207-5.738.091 6.834 2.095 7.549 5.73 8.362a23.414 23.414 0 004.329 2.234c-2.786-.219-5.792-.73-8.603-1.895-8.898-3.428-10.584-12.801-17.959-13.417.031 5.823 1.063 9.229 6.411 11.437 7.419 3.063 14.426 5.955 25.552 5.955 18.312 0 33.211-13.328 33.212-29.711zm10.975 48.806c-13.229 10.615-28.746 15.545-44.189 15.546-30.348 0-39.583-13-57.999-13v-1.577c18.882.001 27.966 13 57.999 13 15.455 0 30.456-5.141 42.312-14.487l-12.204-32.643c-6.025 9.342-17.259 15.642-30.106 15.642-23.993 0-29.162-13-58.001-13v-1.576c11.91 0 19.796 2.149 26.647 4.727-2.177-3.021-2.187-6.853-2.187-9.939v-.788h.789c8.056 0 10.152 8.102 16.682 12.226-.855-1.921-.971-4.315-.971-6.702v-.788h.788c9.243 0 10.233 4.693 17.38 5.593-1.906-1.68-2.915-4.631-2.915-8.541v-.788h.788c6.081 0 8.146 1.562 12.122 1.562 2.922 0 5.666-1.659 7.572-4.511-5.13.402-9.482-3.664-9.482-8.761 0-7.051 5.737-12.788 12.788-12.788 7.05 0 12.787 5.736 12.788 12.786v.002c0 4.998-1.317 9.722-3.645 13.917l13.044 34.888zm-55.404 17.276l15.278 40.854.842-2.25-14.365-38.413a95.35 95.35 0 01-1.755-.191zM91.255 279.5l1.307 2.328a21.05 21.05 0 001.645-.288l-1.792-3.195c-.358.413-.745.799-1.16 1.155zm107.264-44.532h-1.603c-2.928 17.736-18.363 31.31-36.916 31.31-18.553 0-33.988-13.574-36.916-31.31h-1.604c2.935 18.634 19.061 32.886 38.52 32.886 19.458 0 35.584-14.252 38.519-32.886zm4.131 49.172c.577.019 1.121.057 1.643.109l13.959-37.328a73.32 73.32 0 01-1.306-1.008L202.65 284.14zM46.708 86.532c0-1.063-.761-1.255-2.345-1.558l-2.453-.494v2.361l2.533.554c1.149.218 2.265.264 2.265-.863zm-.681 2.48l2.701 4.537c-.717-.08-1.417-.17-2.102-.267l-2.618-4.404-2.098-.4v3.964a61.272 61.272 0 01-1.641-.377v-9.731c1.854.516 4.286 1.053 4.289 1.054 2.623.5 3.847 1.579 3.847 3.398 0 1.432-.981 2.098-2.378 2.226zm179.789 113.406l-28.31 84.114c.361.417.576.666 1.199 1.378l27.903-82.904a30.592 30.592 0 01-.792-2.588zM32.252 84.234l1.854.579c1.657.545 2.748.728 2.748-.67 0-1.122-1.05-1.659-2.748-2.219l-1.854-.579v2.889zm0 1.519v3.835l-1.603-.599v-9.812c3.28 1.024 4.296 1.42 4.868 1.649 2.016.862 2.943 1.914 2.943 3.596 0 1.493-1.294 2.933-4.208 1.974l-2-.643zm-2.723 124.324c-.593-.433-1.196-.782-1.848-1.018.019.295.044.583.074.867 1.032 2.49 2.554 4.709 4.425 6.597.313.128.633.257.944.385 1.481.612 2.947 1.214 4.431 1.789-3.491-2.005-6.327-4.983-8.026-8.62zM58.779 86.24l-.027-1.608a67.116 67.116 0 01-7.671-.298v9.442c3.037.246 5.316.295 7.953.248.002-.118.02-1.4.023-1.519a63.835 63.835 0 01-6.349-.201v-2.409c1.695.138 3.425.211 5.207.211v-1.53c-1.72 0-3.462-.069-5.207-.212v-2.257c2.207.153 4.048.173 6.071.133zm16.47-3.47c.814-.188 1.792-.162 2.079.619a50.565 50.565 0 001.695-.663c-.544-1.501-2.242-1.763-3.803-1.39-2.458.587-3.98 2.017-3.972 3.733.011 2.439 2.736 2.192 3.771 2.133 1.613-.085 2.647-.072 2.652 1.012.003.714-.829 1.628-2.425 1.998-.675.157-1.456.144-1.985-.3l-1.897.394c.572 1.14 1.97 1.874 3.912 1.413 2.585-.618 4.251-2.152 4.242-3.909-.01-2.294-1.986-2.279-3.907-2.196-1.421.059-2.556.095-2.561-.905-.005-.881.838-1.624 2.199-1.939zm-10.207 9.68c-.826.081-1.785-.086-2.253-.776l-1.908.228c.487 1.461 2.163 2.237 4.171 2.025 2.68-.291 4.411-1.591 4.411-3.311 0-2.3-2.137-2.466-4.023-2.612-1.422-.11-2.651-.206-2.651-1.197 0-.858.873-1.48 2.278-1.623.914-.093 1.97.088 2.183.997a59.59 59.59 0 001.792-.383c-.428-1.619-2.217-2.212-3.985-2.018-2.509.271-4.13 1.517-4.13 3.174-.001 2.362 2.769 2.457 3.881 2.532 1.682.11 2.745.254 2.746 1.313 0 .694-.864 1.484-2.512 1.651zm141.739 192.195c.542.122 1.052.261 1.533.415l14.411-35.033c-.45-.288-.896-.583-1.341-.882l-14.603 35.5zm23.422-30.415l-12.721 26.167c.61.008 1.185.029 1.723.063l12.427-25.563c-.477-.219-.956-.437-1.429-.667zm-19.677 31.695c.494.231.959.471 1.406.714l15.247-33.976c-.463-.252-.926-.503-1.383-.765l-15.27 34.027zm-36.944.527l2.17-19.347c-.548.226-1.1.444-1.659.647l-2.071 18.457c.53.077 1.05.158 1.56.243zm-14.37-16.254v15.198c.264-.003.521-.008.789-.008.267 0 .524.005.787.007v-15.197c-.263.005-.524.02-.788.02s-.525-.015-.788-.02zM17.809 75.702a843.69 843.69 0 00-.025-1.603 56.67 56.67 0 00-7.225-1.65v9.634c2.652.533 5.111 1.242 7.484 2.054l.025-1.62a66.97 66.97 0 00-5.94-1.705v-2.653c1.624.385 3.25.837 4.873 1.355v-1.575a66.421 66.421 0 00-4.873-1.354V74.3a64.89 64.89 0 015.681 1.402zm3.068 9.457l3.126-2.7 2.825 4.912 2.382 1.025-3.86-6.771 3.534-3.091-1.729-.711-2.622 2.369-2.708-4.75a74.268 74.268 0 00-2.321-.805l3.663 6.369-3.972 3.533c.564.202 1.125.409 1.682.62zm144.208 200.367l.587-15.705c-.525.072-1.051.142-1.583.194l-.578 15.437c.534.02 1.057.045 1.574.074zm4.274.348l1.275-17.042a41.01 41.01 0 01-1.61.387l-1.234 16.502c.532.046 1.055.097 1.569.153zM57.999 98.643c-29.482 0-36.443-13-57.999-13v-1.577c22.092.001 28.749 13 57.999 13 10.583 0 20.918-2.691 29.936-7.788l-6.35-14.148c-7.001 4.263-15.135 6.512-23.586 6.513-26.018 0-31.259-13-57.998-13H0v-1.577h.001c27.182 0 32.346 13 57.998 13 9.318 0 17.073-2.638 24.281-7.238l7.676 17.103c-10.089 5.86-20.681 8.711-31.957 8.712z"/></g></svg>