<svg xmlns="http://www.w3.org/2000/svg" id="dots" width="1440" height="1090"><defs><style>.cls-3{fill:#134b8d}.cls-4{fill:#0071ce}.cls-5{fill:#ff8300}.cls-6{fill:#00b2e3}</style></defs><path fill="#00205b" d="M0 0h1440v1090H0z"/><g opacity=".5"><path d="M480 109a17.7 17.7 0 1 1 17.7-17.8A17.67 17.67 0 0 1 480 109zM0 73.7a17.78 17.78 0 0 1 17.7 17.6A17.73 17.73 0 0 1 0 109zM800 109a17.7 17.7 0 1 1 17.7-17.8A17.67 17.67 0 0 1 800 109zm160 0a17.7 17.7 0 1 1 17.7-17.8A17.67 17.67 0 0 1 960 109z" class="cls-3"/><path d="M1040 109a17.7 17.7 0 1 1 17.7-17.8A17.67 17.67 0 0 1 1040 109zm-880 0a17.7 17.7 0 1 1 17.7-17.8A17.67 17.67 0 0 1 160 109z" class="cls-4"/><path d="M240 109a17.65 17.65 0 1 1 17.6-17.7A17.65 17.65 0 0 1 240 109z" class="cls-5"/><path d="M400 109a17.65 17.65 0 1 1 17.6-17.7A17.65 17.65 0 0 1 400 109zm240 0a17.65 17.65 0 1 1 17.7-17.7A17.73 17.73 0 0 1 640 109z" class="cls-4"/><path d="M720 109a17.7 17.7 0 1 1 17.7-17.8A17.67 17.67 0 0 1 720 109z" class="cls-3"/><path d="M1360 109a17.7 17.7 0 1 1 17.7-17.8A17.67 17.67 0 0 1 1360 109z" class="cls-4"/><path d="M1440 109a17.65 17.65 0 1 1 0-35.3z" class="cls-3"/><circle cx="480" cy="173.8" r="17.7" class="cls-6"/><circle cx="560" cy="173.8" r="17.7" class="cls-4"/><circle cx="320" cy="173.8" r="17.7" class="cls-3"/><path d="M0 156.1a17.67 17.67 0 0 1 17.7 17.7A17.65 17.65 0 0 1 0 191.4z" class="cls-5"/><circle cx="800" cy="173.8" r="17.7" class="cls-4"/><circle cx="1040.04" cy="173.86" r="17.7" class="cls-5" transform="rotate(-63.43 1040.04 173.86)"/><circle cx="1120" cy="173.8" r="17.7" class="cls-3"/><path d="M80 191.5a17.7 17.7 0 1 1 17.7-17.7A17.8 17.8 0 0 1 80 191.5z" class="cls-3"/><circle cx="160" cy="173.8" r="17.7" class="cls-6"/><circle cx="240.01" cy="173.8" r="17.7" class="cls-6" transform="rotate(-71.56 240 173.8)"/><path d="M640 191.5a17.7 17.7 0 1 1 17.7-17.7 17.8 17.8 0 0 1-17.7 17.7z" class="cls-4"/><path d="M720 191.5a17.7 17.7 0 1 1 17.7-17.7 17.8 17.8 0 0 1-17.7 17.7z" class="cls-6"/><circle cx="880" cy="173.8" r="17.7" class="cls-3"/><circle cx="1200" cy="173.8" r="17.7" class="cls-6"/><circle cx="1280" cy="173.8" r="17.7" class="cls-3"/><path d="M1440 191.5a17.78 17.78 0 0 1-17.7-17.6 17.67 17.67 0 0 1 17.7-17.7z" class="cls-5"/><circle cx="480" cy="256.3" r="17.7" class="cls-6"/><circle cx="560" cy="256.3" r="17.7" class="cls-3"/><path d="M0 238.6a17.67 17.67 0 0 1 17.7 17.7A17.65 17.65 0 0 1 0 273.9z" class="cls-4"/><circle cx="800" cy="256.3" r="17.7" class="cls-5"/><circle cx="960.06" cy="256.44" r="17.7" class="cls-6"/><circle cx="1040.04" cy="256.36" r="17.7" class="cls-3" transform="rotate(-63.43 1040.04 256.36)"/><path d="M80 273.9a17.7 17.7 0 1 1 17.7-17.7A17.8 17.8 0 0 1 80 273.9z" class="cls-3"/><path d="M160 273.9a17.7 17.7 0 1 1 17.7-17.7 17.8 17.8 0 0 1-17.7 17.7z" class="cls-6"/><circle cx="240.01" cy="256.3" r="17.7" class="cls-3" transform="rotate(-71.56 240 256.3)"/><circle cx="1200" cy="256.3" r="17.7" class="cls-3"/><path d="M1360 273.9a17.7 17.7 0 1 1 17.7-17.7 17.8 17.8 0 0 1-17.7 17.7z" class="cls-3"/><path d="M1280 273.9a17.7 17.7 0 1 1 17.7-17.7 17.8 17.8 0 0 1-17.7 17.7z" class="cls-5"/><path d="M1440 273.9a17.78 17.78 0 0 1-17.7-17.6 17.67 17.67 0 0 1 17.7-17.7z" class="cls-4"/><circle cx="480" cy="421.3" r="17.7" class="cls-3"/><circle cx="560" cy="421.3" r="17.7" class="cls-6"/><circle cx="320" cy="421.3" r="17.7" class="cls-6"/><path d="M0 403.6a17.67 17.67 0 0 1 17.7 17.7A17.8 17.8 0 0 1 0 439z" class="cls-3"/><circle cx="800" cy="421.3" r="17.7" class="cls-3"/><circle cx="960.1" cy="421.3" r="17.7" class="cls-3"/><circle cx="1040.02" cy="421.29" r="17.7" class="cls-6" transform="rotate(-71.56 1040.02 421.3)"/><circle cx="1120" cy="421.3" r="17.7" class="cls-6"/><path d="M80 438.9a17.7 17.7 0 1 1 17.7-17.7A17.67 17.67 0 0 1 80 438.9z" class="cls-3"/><circle cx="160" cy="421.3" r="17.7" class="cls-3"/><circle cx="240" cy="421.3" r="17.7" class="cls-3"/><circle cx="400" cy="421.3" r="17.7" class="cls-4"/><path d="M640 438.9a17.7 17.7 0 1 1 17.7-17.7 17.8 17.8 0 0 1-17.7 17.7z" class="cls-3"/><circle cx="1200" cy="421.3" r="17.7" class="cls-3"/><path d="M1280 438.9a17.7 17.7 0 1 1 17.7-17.7 17.8 17.8 0 0 1-17.7 17.7zm160 0a17.7 17.7 0 0 1 0-35.4zM0 321.1a17.67 17.67 0 0 1 17.7 17.7A17.8 17.8 0 0 1 0 356.5z" class="cls-3"/><circle cx="800" cy="338.8" r="17.7" class="cls-6"/><circle cx="960" cy="338.8" r="17.7" class="cls-3"/><path d="M1040 356.4a17.7 17.7 0 1 1 17.7-17.7 17.8 17.8 0 0 1-17.7 17.7zm80 0a17.7 17.7 0 1 1 17.7-17.7 17.8 17.8 0 0 1-17.7 17.7z" class="cls-4"/><circle cx="240" cy="338.8" r="17.7" class="cls-4"/><circle cx="400" cy="338.8" r="17.7" class="cls-3"/><path d="M720 356.4a17.7 17.7 0 1 1 17.7-17.7 17.8 17.8 0 0 1-17.7 17.7z" class="cls-3"/><path d="M880 356.4a17.65 17.65 0 1 1 17.6-17.7 17.58 17.58 0 0 1-17.6 17.7z" class="cls-4"/><path d="M1360 356.4a17.7 17.7 0 1 1 17.7-17.7 17.8 17.8 0 0 1-17.7 17.7z" class="cls-3"/><circle cx="1280" cy="338.8" r="17.7" class="cls-4"/><path d="M1440 356.4a17.7 17.7 0 0 1 0-35.4zm-960 165a17.7 17.7 0 1 1 17.7-17.7 17.8 17.8 0 0 1-17.7 17.7zm80 0a17.7 17.7 0 1 1 17.7-17.7 17.8 17.8 0 0 1-17.7 17.7zm-240 0a17.65 17.65 0 1 1 17.6-17.7 17.58 17.58 0 0 1-17.6 17.7z" class="cls-3"/><path d="M0 486.1a17.67 17.67 0 0 1 17.7 17.7A17.8 17.8 0 0 1 0 521.5z" class="cls-4"/><path d="M800 521.4a17.7 17.7 0 1 1 17.7-17.7 17.8 17.8 0 0 1-17.7 17.7z" class="cls-3"/><path d="M960 521.4a17.7 17.7 0 1 1 17.7-17.7 17.8 17.8 0 0 1-17.7 17.7z" class="cls-6"/><path d="M1040 521.4a17.7 17.7 0 1 1 17.7-17.7 17.8 17.8 0 0 1-17.7 17.7z" class="cls-3"/><circle cx="1120" cy="503.8" r="17.7" class="cls-4"/><path d="M80 521.4a17.7 17.7 0 1 1 17.7-17.7A17.67 17.67 0 0 1 80 521.4zm80 0a17.7 17.7 0 1 1 17.7-17.7 17.67 17.67 0 0 1-17.7 17.7z" class="cls-4"/><circle cx="240" cy="503.8" r="17.7" class="cls-3"/><path d="M400 521.4a17.65 17.65 0 1 1 17.6-17.7 17.58 17.58 0 0 1-17.6 17.7z" class="cls-3"/><path d="M640 521.4a17.7 17.7 0 1 1 17.7-17.7 17.8 17.8 0 0 1-17.7 17.7zm80 0a17.7 17.7 0 1 1 17.7-17.7 17.8 17.8 0 0 1-17.7 17.7zm160 0a17.65 17.65 0 1 1 17.6-17.7 17.58 17.58 0 0 1-17.6 17.7z" class="cls-4"/><circle cx="1200" cy="503.8" r="17.7" class="cls-4"/><path d="M1360 521.4a17.7 17.7 0 1 1 17.7-17.7 17.8 17.8 0 0 1-17.7 17.7zm-80 0a17.7 17.7 0 1 1 17.7-17.7 17.8 17.8 0 0 1-17.7 17.7z" class="cls-3"/><path d="M1440 521.4a17.7 17.7 0 0 1 0-35.4z" class="cls-4"/><circle cx="480" cy="586.2" r="17.7" class="cls-3"/><path d="M0 568.6a17.67 17.67 0 0 1 17.7 17.7A17.8 17.8 0 0 1 0 604z" class="cls-3"/><circle cx="800" cy="586.2" r="17.7" class="cls-3"/><circle cx="960" cy="586.2" r="17.7" class="cls-3"/><circle cx="1040.03" cy="586.2" r="17.7" class="cls-4" transform="rotate(-71.56 1040.02 586.2)"/><path d="M80 603.9a17.7 17.7 0 1 1 17.7-17.7A17.8 17.8 0 0 1 80 603.9z" class="cls-4"/><circle cx="160" cy="586.2" r="17.7" class="cls-4"/><circle cx="240" cy="586.2" r="17.7" class="cls-3"/><circle cx="400" cy="586.2" r="17.7" class="cls-4"/><path d="M640 603.9a17.7 17.7 0 1 1 17.7-17.7 17.8 17.8 0 0 1-17.7 17.7z" class="cls-4"/><path d="M720 603.9a17.7 17.7 0 1 1 17.7-17.7 17.8 17.8 0 0 1-17.7 17.7z" class="cls-3"/><circle cx="880" cy="586.2" r="17.7" class="cls-3"/><circle cx="1200" cy="586.2" r="17.7" class="cls-3"/><path d="M1360 603.9a17.7 17.7 0 1 1 17.7-17.7 17.8 17.8 0 0 1-17.7 17.7z" class="cls-4"/><circle cx="1280" cy="586.2" r="17.7" class="cls-4"/><path d="M1440 603.9a17.8 17.8 0 0 1-17.7-17.7 17.67 17.67 0 0 1 17.7-17.7z" class="cls-3"/><circle cx="480" cy="668.7" r="17.7" class="cls-6"/><circle cx="560" cy="668.7" r="17.7" class="cls-4"/><circle cx="320" cy="668.7" r="17.7" class="cls-3"/><path d="M0 651.1a17.67 17.67 0 0 1 17.7 17.7A17.65 17.65 0 0 1 0 686.4z" class="cls-5"/><circle cx="800" cy="668.7" r="17.7" class="cls-4"/><circle cx="1040.03" cy="668.7" r="17.7" class="cls-5" transform="rotate(-71.56 1040.03 668.7)"/><circle cx="1120" cy="668.7" r="17.7" class="cls-3"/><path d="M80 686.4a17.7 17.7 0 1 1 17.7-17.7A17.8 17.8 0 0 1 80 686.4z" class="cls-3"/><circle cx="160" cy="668.7" r="17.7" class="cls-6"/><circle cx="240" cy="668.7" r="17.7" class="cls-6"/><path d="M640 686.4a17.7 17.7 0 1 1 17.7-17.7 17.8 17.8 0 0 1-17.7 17.7z" class="cls-4"/><path d="M720 686.4a17.7 17.7 0 1 1 17.7-17.7 17.8 17.8 0 0 1-17.7 17.7z" class="cls-6"/><circle cx="880" cy="668.7" r="17.7" class="cls-3"/><circle cx="1200" cy="668.7" r="17.7" class="cls-6"/><path d="M1360 686.4a17.7 17.7 0 1 1 17.7-17.7 17.8 17.8 0 0 1-17.7 17.7z" class="cls-4"/><path d="M1280 686.4a17.7 17.7 0 1 1 17.7-17.7 17.8 17.8 0 0 1-17.7 17.7z" class="cls-3"/><path d="M1440 686.4a17.78 17.78 0 0 1-17.7-17.6 17.67 17.67 0 0 1 17.7-17.7z" class="cls-5"/><circle cx="480" cy="751.2" r="17.7" class="cls-6"/><circle cx="560" cy="751.2" r="17.7" class="cls-3"/><path d="M0 733.6a17.67 17.67 0 0 1 17.7 17.7A17.65 17.65 0 0 1 0 768.9z" class="cls-4"/><circle cx="800" cy="751.2" r="17.7" class="cls-5"/><circle cx="960" cy="751.2" r="17.7" class="cls-6"/><circle cx="1040.03" cy="751.2" r="17.7" class="cls-3" transform="rotate(-71.56 1040.03 751.2)"/><path d="M80 768.9a17.7 17.7 0 1 1 17.7-17.7A17.8 17.8 0 0 1 80 768.9z" class="cls-3"/><circle cx="160" cy="751.2" r="17.7" class="cls-6"/><circle cx="240" cy="751.2" r="17.7" class="cls-3"/><circle cx="1200" cy="751.2" r="17.7" class="cls-3"/><path d="M1360 768.9a17.7 17.7 0 1 1 17.7-17.7 17.8 17.8 0 0 1-17.7 17.7z" class="cls-3"/><circle cx="1280" cy="751.2" r="17.7" class="cls-5"/><path d="M1440 768.9a17.78 17.78 0 0 1-17.7-17.6 17.67 17.67 0 0 1 17.7-17.7z" class="cls-4"/><circle cx="480" cy="916.2" r="17.7" class="cls-3"/><circle cx="560" cy="916.2" r="17.7" class="cls-6"/><circle cx="320" cy="916.2" r="17.7" class="cls-6"/><path d="M0 898.5a17.67 17.67 0 0 1 17.7 17.7A17.8 17.8 0 0 1 0 933.9z" class="cls-3"/><circle cx="800" cy="916.2" r="17.7" class="cls-3"/><circle cx="960" cy="916.2" r="17.7" class="cls-3"/><circle cx="1040.03" cy="916.2" r="17.7" class="cls-6" transform="rotate(-71.56 1040.03 916.2)"/><circle cx="1120" cy="916.2" r="17.7" class="cls-6"/><path d="M80 933.9a17.7 17.7 0 1 1 17.7-17.7A17.93 17.93 0 0 1 80 933.9z" class="cls-3"/><circle cx="160" cy="916.2" r="17.7" class="cls-3"/><circle cx="240" cy="916.2" r="17.7" class="cls-3"/><circle cx="400" cy="916.2" r="17.7" class="cls-4"/><path d="M640 933.9a17.7 17.7 0 1 1 17.7-17.7 17.93 17.93 0 0 1-17.7 17.7z" class="cls-3"/><circle cx="1200" cy="916.2" r="17.7" class="cls-3"/><circle cx="1280" cy="916.2" r="17.7" class="cls-3"/><path d="M1440 933.9a17.8 17.8 0 0 1-17.7-17.7 17.67 17.67 0 0 1 17.7-17.7z" class="cls-3"/><circle cx="480" cy="998.7" r="17.7" class="cls-3"/><circle cx="560" cy="998.7" r="17.7" class="cls-4"/><circle cx="320" cy="998.7" r="17.7" class="cls-4"/><path d="M0 981a17.67 17.67 0 0 1 17.7 17.7v.1A17.65 17.65 0 0 1 0 1016.4z" class="cls-4"/><circle cx="800" cy="998.7" r="17.7" class="cls-6"/><path d="M960 1016.3a17.7 17.7 0 1 1 17.7-17.7v.1a17.71 17.71 0 0 1-17.7 17.6z" class="cls-6"/><circle cx="1040.03" cy="998.7" r="17.7" class="cls-4" transform="rotate(-71.56 1040.03 998.7)"/><circle cx="1120" cy="998.7" r="17.7" class="cls-4"/><path d="M80 1016.3a17.7 17.7 0 1 1 17.7-17.7v.1a17.71 17.71 0 0 1-17.7 17.6z" class="cls-3"/><circle cx="160" cy="998.7" r="17.7" class="cls-4"/><circle cx="240" cy="998.7" r="17.7" class="cls-5"/><circle cx="400" cy="998.7" r="17.7" class="cls-3"/><path d="M640 1016.3a17.65 17.65 0 1 1 17.7-17.6 17.71 17.71 0 0 1-17.7 17.6zm80 0a17.7 17.7 0 1 1 17.7-17.7v.1a17.71 17.71 0 0 1-17.7 17.6z" class="cls-4"/><circle cx="880" cy="998.7" r="17.7" class="cls-3"/><circle cx="1200" cy="998.7" r="17.7" class="cls-4"/><path d="M1360 1016.3a17.7 17.7 0 1 1 17.7-17.7v.1a17.71 17.71 0 0 1-17.7 17.6z" class="cls-3"/><circle cx="1280" cy="998.7" r="17.7" class="cls-3"/><path d="M1440 1016.3a17.78 17.78 0 0 1-17.7-17.6v-.1a17.67 17.67 0 0 1 17.7-17.7z" class="cls-4"/><path d="M0 816.1a17.67 17.67 0 0 1 17.7 17.7A17.8 17.8 0 0 1 0 851.5z" class="cls-3"/><circle cx="800" cy="833.7" r="17.7" class="cls-6"/><circle cx="960" cy="833.7" r="17.7" class="cls-3"/><path d="M1040 851.4a17.7 17.7 0 1 1 17.7-17.7 17.8 17.8 0 0 1-17.7 17.7zm80 0a17.7 17.7 0 1 1 17.7-17.7 17.8 17.8 0 0 1-17.7 17.7z" class="cls-4"/><circle cx="240" cy="833.7" r="17.7" class="cls-4"/><circle cx="400" cy="833.7" r="17.7" class="cls-3"/><path d="M720 851.4a17.7 17.7 0 1 1 17.7-17.7 17.8 17.8 0 0 1-17.7 17.7z" class="cls-3"/><path d="M880 851.4a17.65 17.65 0 1 1 17.6-17.7 17.65 17.65 0 0 1-17.6 17.7z" class="cls-4"/><circle cx="1200" cy="833.7" r="17.7" class="cls-6"/><path d="M1360 851.4a17.7 17.7 0 1 1 17.7-17.7 17.8 17.8 0 0 1-17.7 17.7z" class="cls-3"/><circle cx="1280" cy="833.7" r="17.7" class="cls-4"/><path d="M1440 851.4a17.8 17.8 0 0 1-17.7-17.7A17.67 17.67 0 0 1 1440 816z" class="cls-3"/><path d="M62.3 1090a17.7 17.7 0 0 1 35.4 0H62.3z" class="cls-4"/><path d="M142.3 1090a17.7 17.7 0 0 1 35.4 0z" class="cls-6"/><path d="M222.3 1090a17.7 17.7 0 0 1 35.4 0z" class="cls-3"/><path d="M382.3 1090a17.7 17.7 0 0 1 35.4 0z" class="cls-4"/><path d="M622.3 1090a17.7 17.7 0 0 1 35.4 0h-35.4z" class="cls-3"/><path d="M702.3 1090a17.7 17.7 0 0 1 35.4 0h-35.4z" class="cls-6"/><path d="M862.3 1090a17.7 17.7 0 0 1 35.4 0zm320 0a17.7 17.7 0 0 1 35.4 0zm160 0a17.7 17.7 0 0 1 35.4 0h-35.4z" class="cls-3"/><path d="M1262.3 1090a17.7 17.7 0 0 1 35.4 0zM97.7 0a17.7 17.7 0 0 1-35.4 0z" class="cls-4"/><path d="M177.7 0a17.7 17.7 0 0 1-35.4 0z" class="cls-6"/><path d="M257.7 0a17.7 17.7 0 0 1-35.4 0z" class="cls-3"/><path d="M417.7 0a17.7 17.7 0 0 1-35.4 0z" class="cls-4"/><path d="M657.7 0a17.7 17.7 0 0 1-35.4 0z" class="cls-3"/><path d="M737.7 0a17.7 17.7 0 0 1-35.4 0z" class="cls-6"/><path d="M897.7 0a17.7 17.7 0 0 1-35.4 0zm320 0a17.7 17.7 0 0 1-35.4 0zm160 0a17.7 17.7 0 0 1-35.4 0z" class="cls-3"/><path d="M1297.7 0a17.7 17.7 0 0 1-35.4 0z" class="cls-4"/></g></svg>